<?xml version="1.0" encoding="UTF-8"?>
<svg width="1360px" height="585px" viewBox="0 0 1360 585" version="1.1" xmlns="http://www.w3.org/2000/svg" xmlns:xlink="http://www.w3.org/1999/xlink">
    <!-- Generator: Sketch 63.1 (92452) - https://sketch.com -->
    <title>icon_Mobile Web_on Sketch</title>
    <desc>Created with Sketch.</desc>
    <defs>
        <polygon id="path-1" points="0 0 20 0 20 19.99945 0 19.99945"></polygon>
        <polygon id="path-3" points="0 42 42 42 42 0 0 0"></polygon>
        <polygon id="path-5" points="0 42 42 42 42 0 0 0"></polygon>
        <polygon id="path-7" points="0 42 42 42 42 0 0 0"></polygon>
        <polygon id="path-9" points="0.0003 0.09 18 0.09 18 16 0.0003 16"></polygon>
        <polygon id="path-11" points="0 -0.0001 11.9995 -0.0001 11.9995 11.9328 0 11.9328"></polygon>
        <polygon id="path-13" points="0.0004 0.0005 11.9994 0.0005 11.9994 10.5502 0.0004 10.5502"></polygon>
        <polygon id="path-15" points="0 0.00029 12 0.00029 12 8.39019 0 8.39019"></polygon>
        <polygon id="path-17" points="0.000163194104 -0.0002 9.198 -0.0002 9.198 11.9328 0.000163194104 11.9328"></polygon>
        <polygon id="path-19" points="0.00025 0.0002 23.9998945 0.0002 23.9998945 15.2732 0.00025 15.2732"></polygon>
        <polygon id="path-21" points="0 28 28 28 28 0 0 0"></polygon>
        <polygon id="path-23" points="0.00015 0.0004 21.29465 0.0004 21.29465 21.2614 0.00015 21.2614"></polygon>
        <polygon id="path-25" points="0 0 21.1257 0 21.1257 23.9999 0 23.9999"></polygon>
        <polygon id="path-27" points="0 0.0342 18.8028574 0.0342 18.8028574 10.6952 0 10.6952"></polygon>
        <polygon id="path-29" points="0.6399 0.6743 12.9649 0.6743 12.9649 13 0.6399 13"></polygon>
        <polygon id="path-31" points="0 0.3789 23.973 0.3789 23.973 11.9999 0 11.9999"></polygon>
        <polygon id="path-33" points="0.8256 0.6011 7.0916 0.6011 7.0916 10 0.8256 10"></polygon>
        <polygon id="path-35" points="0.3444 0.027 13.5264 0.027 13.5264 13.2089 0.3444 13.2089"></polygon>
        <polygon id="path-37" points="0 0 23.9997 0 23.9997 23.9999 0 23.9999"></polygon>
        <polygon id="path-39" points="0.0002 0 163 0 163 59.9999 0.0002 59.9999"></polygon>
        <polygon id="path-41" points="0 60 163 60 163 0 0 0"></polygon>
        <path d="M0.708,0.734 L13.365,13.483 L0.708,26.193 C0.267,25.753 0,25.155 0,24.495 L0,24.495 L0,2.432 C0,1.772 0.267,1.175 0.708,0.734" id="path-43"></path>
        <linearGradient x1="22.1205016%" y1="58.1694403%" x2="53.2390104%" y2="41.832187%" id="linearGradient-45">
            <stop stop-color="#00E2FF" offset="0%"></stop>
            <stop stop-color="#00C3FF" offset="100%"></stop>
        </linearGradient>
        <polygon id="path-46" points="0.0002 0 163 0 163 59.9999 0.0002 59.9999"></polygon>
    </defs>
    <g id="icon_Mobile-Web_on-Sketch" stroke="none" stroke-width="1" fill="none" fill-rule="evenodd">
        <g id="Group-3" transform="translate(35.000000, 36.000000)">
            <mask id="mask-2" fill="white">
                <use xlink:href="#path-1"></use>
            </mask>
            <g id="Clip-2"></g>
            <path d="M18.667,0.1186 C18.24,-0.0354 17.775,-0.0394 17.347,0.1056 L1.371,5.5186 C0.317,5.8746 -0.249,7.0216 0.105,8.0806 C0.286,8.6196 0.684,9.0576 1.202,9.2866 L7.705,12.1636 L10.439,18.7566 C10.871,19.7886 12.053,20.2746 13.079,19.8406 C13.312,19.7436 13.522,19.6026 13.703,19.4256 C13.921,19.2116 14.088,18.9506 14.19,18.6616 L19.882,2.7046 C20.256,1.6536 19.712,0.4946 18.667,0.1186 L18.667,0.1186 Z M12.928,18.2056 C12.803,18.5566 12.419,18.7386 12.07,18.6126 C11.893,18.5486 11.75,18.4116 11.678,18.2376 L9.014,11.8176 L18.568,2.3946 L12.928,18.2056 Z M8.075,10.8546 L1.743,8.0526 C1.487,7.9436 1.328,7.6846 1.345,7.4066 C1.351,7.1256 1.534,6.8816 1.8,6.7976 L17.629,1.4316 L8.075,10.8546 Z" id="Fill-1" fill="#FFFFFF" mask="url(#mask-2)"></path>
        </g>
        <path d="M100,42 L116,42 C117.104,42 118,42.896 118,44 C118,45.104 117.104,46 116,46 L100,46 C98.896,46 98,45.104 98,44 C98,42.896 98.896,42 100,42" id="Fill-1" fill="#F37406"></path>
        <path d="M163,42 L163,42 C164.104,42 165,42.896 165,44 C165,45.104 164.104,46 163,46 C161.896,46 161,45.104 161,44 C161,42.896 161.896,42 163,42" id="Fill-1" fill="#0D58AC"></path>
        <path d="M216.04923,51.9998553 C217.83723,51.9998553 219.57323,51.4068553 220.98323,50.3138553 L226.30423,55.6048553 C226.70223,55.9868553 227.33523,55.9768553 227.71823,55.5808553 C228.09323,55.1948553 228.09323,54.5848553 227.71823,54.1988553 L222.39823,48.9078553 C225.12423,45.4188553 224.48923,40.3928553 220.98023,37.6828553 C217.47223,34.9718553 212.41823,35.6038553 209.69223,39.0918553 C206.96623,42.5818553 207.60123,47.6068553 211.11023,50.3178553 C212.52223,51.4088553 214.26023,52.0008553 216.04923,51.9998553 M211.77423,39.7508553 C214.13523,37.4028553 217.96323,37.4028553 220.32423,39.7498553 C222.68523,42.0988553 222.68523,45.9048553 220.32423,48.2528553 C217.96323,50.6018553 214.13523,50.6018553 211.77423,48.2528553 C209.41323,45.9218553 209.39923,42.1288553 211.74323,39.7818553 C211.75323,39.7708553 211.76323,39.7608553 211.77423,39.7508553" id="Fill-1" fill="#FFFFFF"></path>
        <g id="Group-32" transform="translate(271.000000, 25.000000)">
            <path d="M21,0 C32.598,0 42,9.402 42,21 C42,32.598 32.598,42 21,42 C9.402,42 0,32.598 0,21 C0,9.402 9.402,0 21,0" id="Fill-1" fill="#DEE9F6"></path>
            <g id="Group-31" transform="translate(5.000000, 5.000000)">
                <path d="M10.3828,24.5068 C9.9518,24.5068 9.5648,24.2098 9.4678,23.7728 L4.8368,2.7748 C4.7518,2.2678 4.3628,1.8748 3.9018,1.8748 L0.9378,1.8748 C0.4198,1.8748 -0.0002,1.4558 -0.0002,0.9378 C-0.0002,0.4198 0.4198,-0.0002 0.9378,-0.0002 L3.9018,-0.0002 C5.2858,-0.0002 6.4528,0.9908 6.6778,2.3588 L11.2998,23.3668 C11.4108,23.8728 11.0908,24.3738 10.5858,24.4858 C10.5178,24.4998 10.4488,24.5068 10.3828,24.5068" id="Fill-3" fill="#EF7733"></path>
                <path d="M9.5,25.4375 C9.5,25.9615 9.913,26.3745 10.437,26.3745 L29.187,26.3745 C29.713,26.3745 30.125,26.7875 30.125,27.3125 C30.125,27.8365 29.713,28.2505 29.187,28.2505 L10.437,28.2505 C8.881,28.2505 7.625,26.9945 7.625,25.4375 C7.625,23.8805 8.881,22.6245 10.437,22.6245 L25.963,22.6245 C26.356,22.6245 26.731,22.3625 26.844,21.9875 L30.182,12.0125 C30.331,11.5245 30.856,11.2625 31.362,11.4315 C31.85,11.5815 32.112,12.1245 31.943,12.6125 L28.625,22.5685 C28.25,23.7315 27.181,24.5005 25.963,24.5005 L10.437,24.5005 C9.913,24.5005 9.5,24.9125 9.5,25.4375" id="Fill-5" fill="#EF7733"></path>
                <path d="M12.3125,26.375 C10.7555,26.375 9.4995,27.631 9.4995,29.188 C9.4995,30.744 10.7555,32 12.3125,32 C13.8695,32 15.1255,30.744 15.1255,29.188 C15.1255,27.631 13.8685,26.375 12.3125,26.375" id="Fill-7" fill="#0D58AC"></path>
                <path d="M12.3125,28.25 C11.7875,28.25 11.3755,28.662 11.3755,29.187 C11.3755,29.713 11.7875,30.125 12.3125,30.125 C12.8375,30.125 13.2495,29.713 13.2495,29.187 C13.2495,28.662 12.8375,28.25 12.3125,28.25" id="Fill-9" fill="#FFFFFF"></path>
                <path d="M25.4375,26.375 C23.8805,26.375 22.6245,27.631 22.6245,29.188 C22.6245,30.744 23.8805,32 25.4375,32 C26.9945,32 28.2505,30.744 28.2505,29.188 C28.2505,27.631 26.9935,26.375 25.4375,26.375" id="Fill-11" fill="#0D58AC"></path>
                <path d="M25.4375,28.25 C24.9125,28.25 24.5005,28.662 24.5005,29.187 C24.5005,29.713 24.9125,30.125 25.4375,30.125 C25.9625,30.125 26.3745,29.713 26.3745,29.187 C26.3745,28.662 25.9625,28.25 25.4375,28.25" id="Fill-13" fill="#FFFFFF"></path>
                <polygon id="Fill-15" fill="#EF7733" points="31.6592 13.4668 7.1952 13.4668 9.7062 24.5068 25.9632 24.5068"></polygon>
                <polygon id="Fill-17" fill="#0D58AC" points="27.3936 20.9678 11.4506 20.9678 11.4506 9.3888 19.6226 2.5818 27.3936 9.3888"></polygon>
                <g id="Group-30" transform="translate(9.000000, 0.000000)">
                    <polygon id="Fill-19" fill="#FFFFFF" points="8.988 20.968 12.257 20.968 12.257 16.065 8.988 16.065"></polygon>
                    <path d="M10.6221,2.9897 L2.8281,9.8027 C2.0421,10.4877 0.8161,9.9287 0.8161,8.8877 L10.6221,0.5377 L20.4291,8.8877 L20.4291,8.9637 C20.4291,9.9927 19.2271,10.5547 18.4371,9.8967 L10.6221,2.9897 Z" id="Fill-21" fill="#FFFFFF"></path>
                    <path d="M11.0313,19.7422 C10.8053,19.7422 10.6233,19.5592 10.6233,19.3342 L10.6233,17.6992 C10.6233,17.4732 10.8053,17.2902 11.0313,17.2902 C11.2573,17.2902 11.4393,17.4732 11.4393,17.6992 L11.4393,19.3342 C11.4393,19.5592 11.2573,19.7422 11.0313,19.7422" id="Fill-22" fill="#0D58AC"></path>
                    <path d="M10.6221,7.8931 C9.9461,7.8931 9.3961,7.3431 9.3961,6.6671 C9.3961,5.9911 9.9461,5.4411 10.6221,5.4411 C11.2991,5.4411 11.8491,5.9911 11.8491,6.6671 C11.8491,7.3431 11.2991,7.8931 10.6221,7.8931 M10.6221,6.2591 C10.3971,6.2591 10.2141,6.4421 10.2141,6.6671 C10.2141,6.8931 10.3971,7.0761 10.6221,7.0761 C10.8481,7.0761 11.0311,6.8931 11.0311,6.6671 C11.0311,6.4421 10.8481,6.2591 10.6221,6.2591" id="Fill-23" fill="#EF7733"></path>
                    <path d="M8.1709,10.3447 C8.0779,10.3447 7.9859,10.3137 7.9089,10.2497 C7.7359,10.1047 7.7129,9.8477 7.8569,9.6747 L9.8999,7.2227 C10.0439,7.0497 10.3019,7.0257 10.4759,7.1707 C10.6489,7.3147 10.6719,7.5727 10.5269,7.7457 L8.4839,10.1977 C8.4029,10.2947 8.2879,10.3447 8.1709,10.3447" id="Fill-24" fill="#EF7733"></path>
                    <path d="M13.0742,10.3447 C12.9572,10.3447 12.8412,10.2947 12.7602,10.1977 L10.7182,7.7457 C10.5732,7.5727 10.5962,7.3147 10.7692,7.1707 C10.9422,7.0257 11.2002,7.0497 11.3452,7.2227 L13.3872,9.6747 C13.5322,9.8477 13.5092,10.1057 13.3362,10.2497 C13.2592,10.3137 13.1662,10.3447 13.0742,10.3447" id="Fill-25" fill="#EF7733"></path>
                    <path d="M15.3936,14.9326 L5.8506,14.9326 C5.3266,14.9326 4.9026,14.5076 4.9026,13.9836 L4.9026,10.7916 C4.9026,10.2676 5.3266,9.8426 5.8506,9.8426 L15.3936,9.8426 C15.9176,9.8426 16.3426,10.2676 16.3426,10.7916 L16.3426,13.9836 C16.3426,14.5076 15.9176,14.9326 15.3936,14.9326" id="Fill-26" fill="#FFFFFF"></path>
                    <path d="M8.0078,10.7529 L7.2958,10.7529 C7.0588,10.7529 6.8668,10.9449 6.8668,11.1809 L6.8668,13.5949 C6.8668,13.8299 7.0588,14.0219 7.2958,14.0219 L8.0078,14.0219 C8.5548,14.0219 8.9998,13.5779 8.9998,13.0309 C8.9998,12.7849 8.9088,12.5609 8.7608,12.3879 C8.9088,12.2139 8.9998,11.9899 8.9998,11.7439 C8.9998,11.1979 8.5548,10.7529 8.0078,10.7529 L8.0078,10.7529 Z M7.5638,11.4489 L8.0078,11.4489 C8.1708,11.4489 8.3038,11.5819 8.3038,11.7439 C8.3038,11.9069 8.1708,12.0399 8.0078,12.0399 L7.5638,12.0399 L7.5638,11.4489 Z M8.0078,13.3259 L7.5638,13.3259 L7.5638,12.7359 L8.0078,12.7359 C8.1708,12.7359 8.3038,12.8679 8.3038,13.0309 C8.3038,13.1929 8.1708,13.3259 8.0078,13.3259 L8.0078,13.3259 Z" id="Fill-27" fill="#EF7733"></path>
                    <path d="M11.3389,10.7529 C11.1469,10.7529 10.9899,10.9089 10.9899,11.1009 L10.9899,12.9559 C10.9899,13.1599 10.8239,13.3259 10.6199,13.3259 C10.4159,13.3259 10.2509,13.1599 10.2509,12.9559 L10.2509,11.1009 C10.2509,10.9089 10.0949,10.7529 9.9019,10.7529 C9.7099,10.7529 9.5549,10.9089 9.5549,11.1009 L9.5549,12.9559 C9.5549,13.5439 10.0319,14.0219 10.6199,14.0219 C11.2079,14.0219 11.6869,13.5439 11.6869,12.9559 L11.6869,11.1009 C11.6869,10.9089 11.5309,10.7529 11.3389,10.7529" id="Fill-28" fill="#EF7733"></path>
                    <path d="M14.251,10.833 C14.103,10.71 13.884,10.731 13.761,10.879 L13.311,11.422 L12.861,10.879 C12.738,10.731 12.519,10.71 12.371,10.833 C12.223,10.956 12.202,11.175 12.325,11.323 L12.963,12.094 L12.963,13.674 C12.963,13.866 13.119,14.022 13.311,14.022 C13.503,14.022 13.659,13.866 13.659,13.674 L13.659,12.094 L14.297,11.323 C14.42,11.175 14.398,10.956 14.251,10.833" id="Fill-29" fill="#EF7733"></path>
                </g>
            </g>
        </g>
        <g id="Group-35" transform="translate(356.000000, 25.000000)">
            <g id="Group-15" transform="translate(5.000000, 2.000000)">
                <path d="M22.0254,17.791 L22.0254,17.791 L22.0254,17.791 L22.0254,17.791 L29.4434,20.092 L25.5754,13.359 C25.5754,13.358 25.5764,13.357 25.5764,13.356 L31.9994,8.993 L24.3234,7.819 C24.3224,7.818 24.3224,7.817 24.3214,7.816 L24.9144,0.075 L19.2114,5.344 L19.2084,5.344 L13.5254,0.054 L14.0884,7.798 C14.0884,7.798 14.0874,7.799 14.0874,7.8 L6.4064,8.945 L12.8144,13.333 L12.8144,13.333 L12.8144,13.334 L12.8144,13.333 L8.9204,20.054 L16.3464,17.78 L19.1724,25.015 L22.0254,17.791 Z" id="Fill-1" fill="#EF7733"></path>
                <polygon id="Fill-3" fill="#155AA9" points="23.123 20.1055 23.123 31.8505 15.871 31.8505 15.871 25.8005 11.848 25.8005 11.848 31.8505 4.275 31.8505 4.275 20.1055 13.699 12.8565"></polygon>
                <polygon id="Fill-5" fill="#ECECF1" points="23.5176 16.4985 23.5176 11.5305 19.5486 11.5305 19.5486 13.4455 13.6996 8.9445 -0.0004 19.4835 2.8706 23.2135 13.6996 14.8835 24.5286 23.2135 27.3986 19.4835"></polygon>
                <path d="M10.6416,23.8271 L10.0096,22.6551 C10.3716,22.5441 10.6416,22.2451 10.6416,21.6901 C10.6416,20.9241 10.1306,20.6821 9.4986,20.6821 L8.5436,20.6821 C8.4236,20.6821 8.3416,20.7741 8.3416,20.8751 L8.3416,24.0101 C8.3416,24.1401 8.5006,24.2081 8.6546,24.2081 C8.8136,24.2081 8.9686,24.1401 8.9686,24.0101 L8.9686,22.7511 L9.3736,22.7511 L10.0586,24.0821 C10.1066,24.1791 10.1886,24.2311 10.2756,24.2311 C10.4586,24.2311 10.6656,24.0631 10.6656,23.9041 C10.6656,23.8851 10.6616,23.8501 10.6416,23.8271 M9.4986,22.2601 L8.9686,22.2601 L8.9686,21.2321 L9.4986,21.2321 C9.8116,21.2321 10.0146,21.3671 10.0146,21.7481 C10.0146,22.1291 9.8116,22.2601 9.4986,22.2601" id="Fill-7" fill="#ECECF1"></path>
                <path d="M13.1782,23.6582 L11.8132,23.6582 L11.8132,22.6882 L12.5462,22.6882 C12.6812,22.6882 12.7442,22.5582 12.7442,22.4472 C12.7442,22.3172 12.6722,22.1962 12.5462,22.1962 L11.8132,22.1962 L11.8132,21.2322 L13.1782,21.2322 C13.3032,21.2322 13.3762,21.1012 13.3762,20.9522 C13.3762,20.8222 13.3132,20.6822 13.1782,20.6822 L11.4612,20.6822 C11.3222,20.6822 11.1862,20.7502 11.1862,20.8802 L11.1862,24.0102 C11.1862,24.1402 11.3222,24.2082 11.4612,24.2082 L13.1782,24.2082 C13.3132,24.2082 13.3762,24.0682 13.3762,23.9372 C13.3762,23.7882 13.3032,23.6582 13.1782,23.6582" id="Fill-9" fill="#ECECF1"></path>
                <path d="M15.8643,20.6826 C15.7053,20.6826 15.5513,20.7406 15.5513,20.8746 L15.5513,22.8146 L14.6203,21.0156 C14.4703,20.7306 14.3793,20.6826 14.1523,20.6826 C13.9933,20.6826 13.8383,20.7446 13.8383,20.8796 L13.8383,24.0096 C13.8383,24.1406 13.9933,24.2076 14.1523,24.2076 C14.3063,24.2076 14.4663,24.1406 14.4663,24.0096 L14.4663,22.0716 L15.5023,24.0096 C15.5843,24.1596 15.7153,24.2076 15.8643,24.2076 C16.0183,24.2076 16.1773,24.1406 16.1773,24.0096 L16.1773,20.8746 C16.1773,20.7406 16.0183,20.6826 15.8643,20.6826" id="Fill-11" fill="#ECECF1"></path>
                <path d="M18.8594,20.6826 L16.8194,20.6826 C16.6844,20.6826 16.6214,20.8276 16.6214,20.9616 C16.6214,21.1166 16.6934,21.2466 16.8194,21.2466 L17.5284,21.2466 L17.5284,24.0096 C17.5284,24.1406 17.6824,24.2076 17.8414,24.2076 C17.9964,24.2076 18.1554,24.1406 18.1554,24.0096 L18.1554,21.2466 L18.8594,21.2466 C18.9844,21.2466 19.0564,21.1116 19.0564,20.9616 C19.0564,20.8276 18.9944,20.6826 18.8594,20.6826" id="Fill-13" fill="#ECECF1"></path>
            </g>
            <path d="M21,0 C32.598,0 42,9.402 42,21 C42,32.598 32.598,42 21,42 C9.402,42 0,32.598 0,21 C0,9.402 9.402,0 21,0" id="Fill-16" fill="#DEE9F6"></path>
            <g id="Group-34">
                <path d="M24,4 C30.627,4 36,9.373 36,16 C36,22.627 30.627,28 24,28 C17.373,28 12,22.627 12,16 C12,9.373 17.373,4 24,4" id="Fill-18" fill="#EF7733"></path>
                <polygon id="Fill-20" fill="#0D58AC" points="29.6777 36 8.2017 36 8.2017 20.402 19.2097 11.232 29.6777 20.402"></polygon>
                <mask id="mask-4" fill="white">
                    <use xlink:href="#path-3"></use>
                </mask>
                <g id="Clip-23"></g>
                <polygon id="Fill-22" fill="#EF7733" mask="url(#mask-4)" points="17.008 36 21.411 36 21.411 29.396 17.008 29.396"></polygon>
                <path d="M19.2095,11.7822 L8.7095,20.9602 C7.6515,21.8822 6.0005,21.1302 6.0005,19.7272 L19.2095,8.4802 L32.4185,19.7272 L32.4185,19.8292 C32.4185,21.2152 30.8015,21.9732 29.7365,21.0862 L19.2095,11.7822 Z" id="Fill-24" fill="#FFFFFF" mask="url(#mask-4)"></path>
                <path d="M19.7598,34.3486 C19.4558,34.3486 19.2098,34.1026 19.2098,33.7986 L19.2098,31.5966 C19.2098,31.2926 19.4558,31.0466 19.7598,31.0466 C20.0638,31.0466 20.3098,31.2926 20.3098,31.5966 L20.3098,33.7986 C20.3098,34.1026 20.0638,34.3486 19.7598,34.3486" id="Fill-25" fill="#FFFFFF" mask="url(#mask-4)"></path>
                <path d="M19.2095,18.3872 C18.2985,18.3872 17.5585,17.6462 17.5585,16.7362 C17.5585,15.8252 18.2985,15.0852 19.2095,15.0852 C20.1205,15.0852 20.8605,15.8252 20.8605,16.7362 C20.8605,17.6462 20.1205,18.3872 19.2095,18.3872 M19.2095,16.1852 C18.9065,16.1852 18.6595,16.4322 18.6595,16.7362 C18.6595,17.0392 18.9065,17.2862 19.2095,17.2862 C19.5125,17.2862 19.7595,17.0392 19.7595,16.7362 C19.7595,16.4322 19.5125,16.1852 19.2095,16.1852" id="Fill-26" fill="#EF7733" mask="url(#mask-4)"></path>
                <path d="M15.9067,21.6895 C15.7827,21.6895 15.6577,21.6475 15.5547,21.5625 C15.3217,21.3675 15.2897,21.0205 15.4847,20.7875 L18.2367,17.4845 C18.4307,17.2515 18.7777,17.2195 19.0107,17.4145 C19.2447,17.6085 19.2767,17.9555 19.0817,18.1895 L16.3297,21.4915 C16.2207,21.6225 16.0647,21.6895 15.9067,21.6895" id="Fill-27" fill="#EF7733" mask="url(#mask-4)"></path>
                <path d="M22.5127,21.6895 C22.3547,21.6895 22.1987,21.6225 22.0887,21.4915 L19.3377,18.1895 C19.1427,17.9555 19.1747,17.6085 19.4077,17.4145 C19.6407,17.2195 19.9877,17.2505 20.1827,17.4845 L22.9347,20.7875 C23.1297,21.0205 23.0977,21.3675 22.8647,21.5625 C22.7617,21.6475 22.6367,21.6895 22.5127,21.6895" id="Fill-28" fill="#EF7733" mask="url(#mask-4)"></path>
                <path d="M25.9658,27.8701 L12.4528,27.8701 C11.9288,27.8701 11.5038,27.4451 11.5038,26.9211 L11.5038,21.9621 C11.5038,21.4381 11.9288,21.0141 12.4528,21.0141 L25.9658,21.0141 C26.4898,21.0141 26.9148,21.4381 26.9148,21.9621 L26.9148,26.9211 C26.9148,27.4451 26.4898,27.8701 25.9658,27.8701" id="Fill-29" fill="#FFFFFF" mask="url(#mask-4)"></path>
                <path d="M15.4214,26.1367 L14.6354,24.6857 C15.0834,24.5457 15.4214,24.1777 15.4214,23.4917 C15.4214,22.5477 14.7854,22.2487 14.0094,22.2487 L12.8264,22.2487 C12.6774,22.2487 12.5784,22.3587 12.5784,22.4887 L12.5784,26.3657 C12.5784,26.5247 12.7764,26.6147 12.9654,26.6147 C13.1644,26.6147 13.3534,26.5337 13.3534,26.3657 L13.3534,24.8047 L13.8504,24.8047 L14.6954,26.4547 C14.7554,26.5737 14.8544,26.6437 14.9634,26.6437 C15.1924,26.6437 15.4514,26.4347 15.4514,26.2367 C15.4514,26.2057 15.4514,26.1657 15.4214,26.1367 M14.0094,24.1987 L13.3534,24.1987 L13.3534,22.9257 L14.0094,22.9257 C14.3974,22.9257 14.6464,23.0947 14.6464,23.5617 C14.6464,24.0387 14.3974,24.1987 14.0094,24.1987" id="Fill-30" fill="#EF7733" mask="url(#mask-4)"></path>
                <path d="M18.563,25.9277 L16.873,25.9277 L16.873,24.7247 L17.778,24.7247 C17.947,24.7247 18.026,24.5657 18.026,24.4267 C18.026,24.2677 17.937,24.1177 17.778,24.1177 L16.873,24.1177 L16.873,22.9257 L18.563,22.9257 C18.722,22.9257 18.812,22.7667 18.812,22.5767 C18.812,22.4187 18.732,22.2397 18.563,22.2397 L16.436,22.2397 C16.267,22.2397 16.097,22.3197 16.097,22.4887 L16.097,26.3647 C16.097,26.5247 16.267,26.6147 16.436,26.6147 L18.563,26.6147 C18.732,26.6147 18.812,26.4457 18.812,26.2767 C18.812,26.0867 18.722,25.9277 18.563,25.9277" id="Fill-31" fill="#EF7733" mask="url(#mask-4)"></path>
                <path d="M21.8838,22.249 C21.6848,22.249 21.4958,22.319 21.4958,22.488 L21.4958,24.884 L20.3428,22.657 C20.1538,22.31 20.0448,22.249 19.7658,22.249 C19.5678,22.249 19.3788,22.329 19.3788,22.498 L19.3788,26.375 C19.3788,26.534 19.5678,26.624 19.7658,26.624 C19.9548,26.624 20.1538,26.544 20.1538,26.375 L20.1538,23.979 L21.4368,26.375 C21.5358,26.564 21.6948,26.624 21.8838,26.624 C22.0718,26.624 22.2718,26.544 22.2718,26.375 L22.2718,22.498 C22.2718,22.319 22.0828,22.249 21.8838,22.249" id="Fill-32" fill="#EF7733" mask="url(#mask-4)"></path>
                <path d="M25.5918,22.249 L23.0678,22.249 C22.8978,22.249 22.8188,22.429 22.8188,22.598 C22.8188,22.786 22.9078,22.945 23.0678,22.945 L23.9418,22.945 L23.9418,26.365 C23.9418,26.524 24.1308,26.614 24.3288,26.614 C24.5188,26.614 24.7178,26.534 24.7178,26.365 L24.7178,22.945 L25.5918,22.945 C25.7508,22.945 25.8408,22.776 25.8408,22.598 C25.8408,22.429 25.7608,22.249 25.5918,22.249" id="Fill-33" fill="#EF7733" mask="url(#mask-4)"></path>
            </g>
        </g>
        <g id="Group-34" transform="translate(441.000000, 25.000000)">
            <path d="M21,0 C32.598,0 42,9.402 42,21 C42,32.598 32.598,42 21,42 C9.402,42 0,32.598 0,21 C0,9.402 9.402,0 21,0" id="Fill-1" fill="#DEE9F6"></path>
            <g id="Group-33">
                <path d="M15.3828,29.5068 C14.9518,29.5068 14.5648,29.2098 14.4678,28.7728 L9.8368,7.7748 C9.7518,7.2678 9.3628,6.8748 8.9018,6.8748 L5.9378,6.8748 C5.4198,6.8748 4.9998,6.4558 4.9998,5.9378 C4.9998,5.4198 5.4198,4.9998 5.9378,4.9998 L8.9018,4.9998 C10.2858,4.9998 11.4528,5.9908 11.6778,7.3588 L16.2998,28.3668 C16.4108,28.8728 16.0908,29.3738 15.5858,29.4858 C15.5178,29.4998 15.4488,29.5068 15.3828,29.5068" id="Fill-3" fill="#EF7733"></path>
                <path d="M14.5,30.4375 C14.5,30.9615 14.913,31.3745 15.437,31.3745 L34.187,31.3745 C34.713,31.3745 35.125,31.7875 35.125,32.3125 C35.125,32.8365 34.713,33.2505 34.187,33.2505 L15.437,33.2505 C13.881,33.2505 12.625,31.9945 12.625,30.4375 C12.625,28.8805 13.881,27.6245 15.437,27.6245 L30.963,27.6245 C31.356,27.6245 31.731,27.3625 31.844,26.9875 L35.182,17.0125 C35.331,16.5245 35.856,16.2625 36.362,16.4315 C36.85,16.5815 37.112,17.1245 36.943,17.6125 L33.625,27.5685 C33.25,28.7315 32.181,29.5005 30.963,29.5005 L15.437,29.5005 C14.913,29.5005 14.5,29.9125 14.5,30.4375" id="Fill-5" fill="#EF7733"></path>
                <path d="M17.3125,31.375 C15.7555,31.375 14.4995,32.631 14.4995,34.188 C14.4995,35.744 15.7555,37 17.3125,37 C18.8695,37 20.1255,35.744 20.1255,34.188 C20.1255,32.631 18.8685,31.375 17.3125,31.375" id="Fill-7" fill="#0D58AC"></path>
                <path d="M17.3125,33.25 C16.7875,33.25 16.3755,33.662 16.3755,34.187 C16.3755,34.713 16.7875,35.125 17.3125,35.125 C17.8375,35.125 18.2495,34.713 18.2495,34.187 C18.2495,33.662 17.8375,33.25 17.3125,33.25" id="Fill-9" fill="#FFFFFF"></path>
                <path d="M30.4375,31.375 C28.8805,31.375 27.6245,32.631 27.6245,34.188 C27.6245,35.744 28.8805,37 30.4375,37 C31.9945,37 33.2505,35.744 33.2505,34.188 C33.2505,32.631 31.9935,31.375 30.4375,31.375" id="Fill-11" fill="#0D58AC"></path>
                <path d="M30.4375,33.25 C29.9125,33.25 29.5005,33.662 29.5005,34.187 C29.5005,34.713 29.9125,35.125 30.4375,35.125 C30.9625,35.125 31.3745,34.713 31.3745,34.187 C31.3745,33.662 30.9625,33.25 30.4375,33.25" id="Fill-13" fill="#FFFFFF"></path>
                <polygon id="Fill-15" fill="#EF7733" points="36.6592 18.4668 12.1952 18.4668 14.7062 29.5068 30.9632 29.5068"></polygon>
                <path d="M27.2783,14.7368 L31.1673,14.7368 C31.3823,14.7368 31.5553,14.9108 31.5553,15.1248 L31.5553,26.1428 L27.2783,26.1428 L27.2783,14.7368 Z" id="Fill-17" fill="#FFFFFF"></path>
                <mask id="mask-6" fill="white">
                    <use xlink:href="#path-5"></use>
                </mask>
                <g id="Clip-20"></g>
                <polygon id="Fill-19" fill="#0D58AC" mask="url(#mask-6)" points="28.704 17.588 30.13 17.588 30.13 16.162 28.704 16.162"></polygon>
                <polygon id="Fill-21" fill="#0D58AC" mask="url(#mask-6)" points="28.704 20.439 30.13 20.439 30.13 19.013 28.704 19.013"></polygon>
                <path d="M18.0562,10.8159 L26.5202,10.8159 C26.9382,10.8159 27.2782,11.1549 27.2782,11.5739 L27.2782,26.1429 L17.2982,26.1429 L17.2982,11.5739 C17.2982,11.1549 17.6382,10.8159 18.0562,10.8159" id="Fill-22" fill="#0D58AC" mask="url(#mask-6)"></path>
                <polygon id="Fill-23" fill="#FFFFFF" mask="url(#mask-6)" points="19.92 15.699 21.346 15.699 21.346 14.273 19.92 14.273"></polygon>
                <polygon id="Fill-24" fill="#FFFFFF" mask="url(#mask-6)" points="23.23 15.699 24.656 15.699 24.656 14.273 23.23 14.273"></polygon>
                <polygon id="Fill-25" fill="#FFFFFF" mask="url(#mask-6)" points="19.92 18.551 21.346 18.551 21.346 17.125 19.92 17.125"></polygon>
                <polygon id="Fill-26" fill="#FFFFFF" mask="url(#mask-6)" points="23.23 18.551 24.656 18.551 24.656 17.125 23.23 17.125"></polygon>
                <polygon id="Fill-27" fill="#FFFFFF" mask="url(#mask-6)" points="20.15 26.143 24.427 26.143 24.427 20.796 20.15 20.796"></polygon>
                <polygon id="Fill-28" fill="#0D58AC" mask="url(#mask-6)" points="21.932 26.143 22.644 26.143 22.644 20.618 21.932 20.618"></polygon>
                <path d="M29.1367,12.3887 L19.7167,12.3887 C19.1927,12.3887 18.7677,11.9637 18.7677,11.4397 L18.7677,8.3027 C18.7677,7.7787 19.1927,7.3537 19.7167,7.3537 L29.1367,7.3537 C29.6597,7.3537 30.0847,7.7787 30.0847,8.3027 L30.0847,11.4397 C30.0847,11.9637 29.6597,12.3887 29.1367,12.3887" id="Fill-29" fill="#FFFFFF" mask="url(#mask-6)"></path>
                <path d="M21.8408,8.2539 L21.1348,8.2539 C20.9018,8.2539 20.7128,8.4439 20.7128,8.6769 L20.7128,11.0659 C20.7128,11.2979 20.9018,11.4879 21.1348,11.4879 L21.8408,11.4879 C22.3818,11.4879 22.8208,11.0479 22.8208,10.5079 C22.8208,10.2649 22.7328,10.0429 22.5848,9.8709 C22.7328,9.6999 22.8208,9.4779 22.8208,9.2349 C22.8208,8.6939 22.3818,8.2539 21.8408,8.2539 L21.8408,8.2539 Z M21.4008,8.9429 L21.8408,8.9429 C22.0018,8.9429 22.1328,9.0739 22.1328,9.2349 C22.1328,9.3959 22.0018,9.5269 21.8408,9.5269 L21.4008,9.5269 L21.4008,8.9429 Z M21.8408,10.7999 L21.4008,10.7999 L21.4008,10.2159 L21.8408,10.2159 C22.0018,10.2159 22.1328,10.3469 22.1328,10.5069 C22.1328,10.6689 22.0018,10.7999 21.8408,10.7999 L21.8408,10.7999 Z" id="Fill-30" fill="#EF7733" mask="url(#mask-6)"></path>
                <path d="M25.1348,8.2539 C24.9448,8.2539 24.7908,8.4079 24.7908,8.5989 L24.7908,10.4339 C24.7908,10.6349 24.6268,10.7999 24.4248,10.7999 C24.2228,10.7999 24.0588,10.6349 24.0588,10.4339 L24.0588,8.5989 C24.0588,8.4079 23.9048,8.2539 23.7148,8.2539 C23.5248,8.2539 23.3698,8.4079 23.3698,8.5989 L23.3698,10.4339 C23.3698,11.0149 23.8428,11.4879 24.4248,11.4879 C25.0058,11.4879 25.4798,11.0149 25.4798,10.4339 L25.4798,8.5989 C25.4798,8.4079 25.3248,8.2539 25.1348,8.2539" id="Fill-31" fill="#EF7733" mask="url(#mask-6)"></path>
                <path d="M28.0166,8.333 C27.8706,8.212 27.6526,8.232 27.5316,8.379 L27.0856,8.916 L26.6416,8.379 C26.5206,8.232 26.3026,8.212 26.1566,8.333 C26.0096,8.455 25.9896,8.671 26.1116,8.818 L26.7426,9.581 L26.7426,11.144 C26.7426,11.334 26.8966,11.488 27.0856,11.488 C27.2766,11.488 27.4306,11.334 27.4306,11.144 L27.4306,9.581 L28.0616,8.818 C28.1826,8.671 28.1626,8.455 28.0166,8.333" id="Fill-32" fill="#EF7733" mask="url(#mask-6)"></path>
            </g>
        </g>
        <g id="Group-27" transform="translate(526.000000, 25.000000)">
            <path d="M21,0 C32.598,0 42,9.402 42,21 C42,32.598 32.598,42 21,42 C9.402,42 0,32.598 0,21 C0,9.402 9.402,0 21,0" id="Fill-1" fill="#DEE9F6"></path>
            <g id="Group-26" transform="translate(7.000000, 1.000000)">
                <path d="M19.9814,17.98 L25.9394,17.98 C26.2684,17.98 26.5344,18.247 26.5344,18.575 L26.5344,35.454 L19.9814,35.454 L19.9814,17.98 Z" id="Fill-3" fill="#EF7733"></path>
                <g id="Group-25">
                    <polygon id="Fill-5" fill="#FFFFFF" points="22.166 22.349 24.351 22.349 24.351 20.164 22.166 20.164"></polygon>
                    <polygon id="Fill-7" fill="#FFFFFF" points="22.166 26.717 24.351 26.717 24.351 24.532 22.166 24.532"></polygon>
                    <path d="M5.8535,11.9736 L18.8205,11.9736 C19.4615,11.9736 19.9825,12.4936 19.9825,13.1346 L19.9825,35.4536 L4.6925,35.4536 L4.6925,13.1346 C4.6925,12.4936 5.2125,11.9736 5.8535,11.9736" id="Fill-8" fill="#0D58AC"></path>
                    <polygon id="Fill-9" fill="#FFFFFF" points="8.709 19.455 10.894 19.455 10.894 17.271 8.709 17.271"></polygon>
                    <polygon id="Fill-10" fill="#FFFFFF" points="13.781 19.455 15.965 19.455 15.965 17.271 13.781 17.271"></polygon>
                    <polygon id="Fill-11" fill="#FFFFFF" points="8.709 23.823 10.894 23.823 10.894 21.638 8.709 21.638"></polygon>
                    <polygon id="Fill-12" fill="#FFFFFF" points="13.781 23.823 15.965 23.823 15.965 21.638 13.781 21.638"></polygon>
                    <polygon id="Fill-13" fill="#FFFFFF" points="9.061 35.454 15.613 35.454 15.613 27.263 9.061 27.263"></polygon>
                    <polygon id="Fill-14" fill="#0D58AC" points="11.792 35.454 12.884 35.454 12.884 26.989 11.792 26.989"></polygon>
                    <path d="M3.5317,34.9082 C3.2307,34.9082 2.9857,35.1522 2.9857,35.4542 C2.9857,35.7562 3.2307,36.0002 3.5317,36.0002 L27.6957,36.0002 C27.9967,36.0002 28.2407,35.7562 28.2407,35.4542 C28.2407,35.1522 27.9967,34.9082 27.6957,34.9082 L3.5317,34.9082 Z" id="Fill-15" fill="#0D58AC"></path>
                    <path d="M5.7593,30.5488 C5.7593,30.0588 5.6043,29.5848 5.3113,29.1788 C5.2893,29.1498 5.2673,29.1188 5.2433,29.0898 C5.3463,28.8438 5.3993,28.5868 5.3993,28.3228 C5.3993,27.8658 5.2403,27.4228 4.9493,27.0578 C5.0293,26.8568 5.0693,26.6468 5.0693,26.4318 C5.0693,26.4008 5.0683,26.3698 5.0673,26.3388 C5.0153,25.3728 4.1643,24.6158 3.1293,24.6158 C2.0603,24.6158 1.1903,25.4308 1.1903,26.4318 C1.1903,26.6468 1.2303,26.8568 1.3103,27.0578 C1.0193,27.4228 0.8603,27.8658 0.8603,28.3228 C0.8603,28.5868 0.9123,28.8438 1.0153,29.0898 C0.6823,29.5108 0.5003,30.0238 0.5003,30.5498 C0.5003,31.7968 1.5023,32.8268 2.7933,32.9828 L2.7933,35.5428 L2.2033,35.5428 C2.0773,35.5428 1.9753,35.6448 1.9753,35.7718 C1.9753,35.8978 2.0773,35.9998 2.2033,35.9998 L2.7933,35.9998 L3.4923,35.9998 L4.0553,35.9998 C4.1813,35.9998 4.2833,35.8978 4.2833,35.7718 C4.2833,35.6448 4.1813,35.5428 4.0553,35.5428 L3.4923,35.5428 L3.4923,32.9798 C4.7713,32.8148 5.7593,31.7878 5.7593,30.5488" id="Fill-16" fill="#EF7733"></path>
                    <path d="M15.6143,3.7153 C14.5903,3.7153 13.7563,2.8823 13.7563,1.8573 C13.7563,0.8333 14.5903,0.0003 15.6143,0.0003 C16.6383,0.0003 17.4713,0.8333 17.4713,1.8573 C17.4713,2.8823 16.6383,3.7153 15.6143,3.7153 M15.6143,1.2383 C15.2723,1.2383 14.9943,1.5163 14.9943,1.8573 C14.9943,2.1983 15.2723,2.4773 15.6143,2.4773 C15.9553,2.4773 16.2333,2.1983 16.2333,1.8573 C16.2333,1.5163 15.9553,1.2383 15.6143,1.2383" id="Fill-17" fill="#EF7733"></path>
                    <path d="M11.8984,7.4307 C11.7584,7.4307 11.6184,7.3837 11.5024,7.2867 C11.2394,7.0677 11.2044,6.6777 11.4234,6.4147 L14.5194,2.6997 C14.7374,2.4367 15.1274,2.4017 15.3904,2.6197 C15.6534,2.8397 15.6894,3.2297 15.4704,3.4927 L12.3744,7.2077 C12.2524,7.3547 12.0764,7.4307 11.8984,7.4307" id="Fill-18" fill="#EF7733"></path>
                    <path d="M19.3291,7.4307 C19.1521,7.4307 18.9761,7.3547 18.8531,7.2077 L15.7581,3.4927 C15.5391,3.2297 15.5741,2.8397 15.8371,2.6207 C16.1001,2.4017 16.4891,2.4367 16.7091,2.6997 L19.8051,6.4147 C20.0231,6.6777 19.9881,7.0677 19.7251,7.2867 C19.6091,7.3837 19.4691,7.4307 19.3291,7.4307" id="Fill-19" fill="#EF7733"></path>
                    <path d="M23.2148,14.3833 L8.0118,14.3833 C7.4228,14.3833 6.9448,13.9053 6.9448,13.3163 L6.9448,7.7373 C6.9448,7.1473 7.4228,6.6703 8.0118,6.6703 L23.2148,6.6703 C23.8048,6.6703 24.2818,7.1473 24.2818,7.7373 L24.2818,13.3163 C24.2818,13.9053 23.8048,14.3833 23.2148,14.3833" id="Fill-20" fill="#FFFFFF"></path>
                    <path d="M11.3521,12.4336 L10.4681,10.8006 C10.9721,10.6436 11.3521,10.2296 11.3521,9.4586 C11.3521,8.3956 10.6361,8.0596 9.7641,8.0596 L8.4331,8.0596 C8.2651,8.0596 8.1531,8.1836 8.1531,8.3286 L8.1531,12.6906 C8.1531,12.8696 8.3771,12.9706 8.5891,12.9706 C8.8131,12.9706 9.0261,12.8806 9.0261,12.6906 L9.0261,10.9346 L9.5851,10.9346 L10.5361,12.7916 C10.6031,12.9256 10.7151,13.0036 10.8371,13.0036 C11.0951,13.0036 11.3861,12.7686 11.3861,12.5456 C11.3861,12.5116 11.3861,12.4666 11.3521,12.4336 M9.7641,10.2526 L9.0261,10.2526 L9.0261,8.8206 L9.7641,8.8206 C10.2001,8.8206 10.4791,9.0106 10.4791,9.5366 C10.4791,10.0736 10.2001,10.2526 9.7641,10.2526" id="Fill-21" fill="#EF7733"></path>
                    <path d="M14.8867,12.1987 L12.9857,12.1987 L12.9857,10.8447 L14.0027,10.8447 C14.1937,10.8447 14.2827,10.6657 14.2827,10.5097 C14.2827,10.3307 14.1817,10.1627 14.0027,10.1627 L12.9857,10.1627 L12.9857,8.8207 L14.8867,8.8207 C15.0657,8.8207 15.1657,8.6417 15.1657,8.4287 C15.1657,8.2507 15.0767,8.0487 14.8867,8.0487 L12.4927,8.0487 C12.3027,8.0487 12.1127,8.1387 12.1127,8.3287 L12.1127,12.6907 C12.1127,12.8697 12.3027,12.9697 12.4927,12.9697 L14.8867,12.9697 C15.0767,12.9697 15.1657,12.7807 15.1657,12.5897 C15.1657,12.3777 15.0657,12.1987 14.8867,12.1987" id="Fill-22" fill="#EF7733"></path>
                    <path d="M18.6221,8.0601 C18.3981,8.0601 18.1861,8.1391 18.1861,8.3291 L18.1861,11.0241 L16.8891,8.5181 C16.6761,8.1271 16.5531,8.0601 16.2401,8.0601 C16.0171,8.0601 15.8041,8.1491 15.8041,8.3401 L15.8041,12.7021 C15.8041,12.8811 16.0171,12.9811 16.2401,12.9811 C16.4521,12.9811 16.6761,12.8921 16.6761,12.7021 L16.6761,10.0061 L18.1191,12.7021 C18.2301,12.9141 18.4101,12.9811 18.6221,12.9811 C18.8351,12.9811 19.0591,12.8921 19.0591,12.7021 L19.0591,8.3401 C19.0591,8.1391 18.8461,8.0601 18.6221,8.0601" id="Fill-23" fill="#EF7733"></path>
                    <path d="M22.7939,8.0601 L19.9529,8.0601 C19.7629,8.0601 19.6739,8.2621 19.6739,8.4521 C19.6739,8.6641 19.7739,8.8431 19.9529,8.8431 L20.9379,8.8431 L20.9379,12.6911 C20.9379,12.8701 21.1499,12.9701 21.3739,12.9701 C21.5859,12.9701 21.8099,12.8811 21.8099,12.6911 L21.8099,8.8431 L22.7939,8.8431 C22.9729,8.8431 23.0739,8.6531 23.0739,8.4521 C23.0739,8.2621 22.9839,8.0601 22.7939,8.0601" id="Fill-24" fill="#EF7733"></path>
                </g>
            </g>
        </g>
        <g id="Group-17" transform="translate(611.000000, 25.000000)">
            <path d="M21,0 C32.598,0 42,9.402 42,21 C42,32.598 32.598,42 21,42 C9.402,42 0,32.598 0,21 C0,9.402 9.402,0 21,0" id="Fill-1" fill="#DEE9F6"></path>
            <g id="Group-16" transform="translate(3.000000, 6.000000)">
                <polygon id="Fill-3" fill="#EF7733" points="7.313 27.937 9.563 27.937 9.563 13.874 7.313 13.874"></polygon>
                <path d="M16.3125,8.25 C16.3115,6.154 14.8625,4.337 12.8195,3.868 C12.2655,1.447 9.8535,-0.065 7.4335,0.49 C5.7525,0.875 4.4405,2.187 4.0555,3.868 C1.6355,4.421 0.1215,6.831 0.6745,9.251 C1.0495,10.893 2.3115,12.187 3.9425,12.604 C3.9425,12.653 3.9355,12.701 3.9355,12.75 C3.9365,15.235 5.9515,17.25 8.4365,17.2490004 C10.9205,17.248 12.9345,15.234 12.9355,12.75 C12.9355,12.701 12.9295,12.653 12.9285,12.604 C14.9175,12.095 16.3105,10.304 16.3125,8.25" id="Fill-5" fill="#0D58AC"></path>
                <g id="Group-15" transform="translate(0.000000, 8.000000)">
                    <polygon id="Fill-6" fill="#EF7733" points="0 22.188 36 22.188 36 19.938 0 19.938"></polygon>
                    <path d="M12.375,16.5625 C12.107,16.5645 11.843,16.6305 11.605,16.7555 C11.095,15.6275 9.767,15.1265 8.639,15.6365 C8.142,15.8615 7.744,16.2595 7.52,16.7555 C6.693,16.3295 5.676,16.6535 5.25,17.4795 C4.823,18.3065 5.146,19.3225 5.973,19.7505 C6.213,19.8745 6.479,19.9385 6.75,19.9375115 L12.375,19.9375115 C13.307,19.9375115 14.062,19.1815 14.062,18.2495 C14.062,17.3185 13.307,16.5625 12.375,16.5625" id="Fill-7" fill="#0D58AC"></path>
                    <polygon id="Fill-8" fill="#EF7733" points="25.312 19.937 27.562 19.937 27.562 9.531 25.312 9.531"></polygon>
                    <path d="M18.5625,2.7812 L34.3125,2.7812 C34.9335,2.7812 35.4375,3.2852 35.4375,3.9062 L35.4375,8.4062 C35.4375,9.0272 34.9335,9.5312 34.3125,9.5312 L18.5625,9.5312 C17.9415,9.5312 17.4375,9.0272 17.4375,8.4062 L17.4375,3.9062 C17.4375,3.2852 17.9415,2.7812 18.5625,2.7812" id="Fill-9" fill="#FFFFFF"></path>
                    <path d="M26.4375,0.5312 C27.0585,0.5312 27.5625,1.0352 27.5625,1.6562 L27.5625,2.7812 L25.3125,2.7812 L25.3125,1.6562 C25.3125,1.0352 25.8165,0.5312 26.4375,0.5312" id="Fill-10" fill="#EF7733"></path>
                    <path d="M23.25,4.1631 L22.381,4.1631 C22.094,4.1631 21.859,4.3971 21.859,4.6841 L21.859,7.6281 C21.859,7.9151 22.094,8.1491 22.381,8.1491 L23.25,8.1491 C23.917,8.1491 24.459,7.6071 24.459,6.9411 C24.459,6.6421 24.349,6.3681 24.168,6.1571 C24.349,5.9451 24.459,5.6711 24.459,5.3721 C24.459,4.7051 23.917,4.1631 23.25,4.1631 L23.25,4.1631 Z M22.708,5.0121 L23.25,5.0121 C23.449,5.0121 23.61,5.1741 23.61,5.3721 C23.61,5.5711 23.449,5.7321 23.25,5.7321 L22.708,5.7321 L22.708,5.0121 Z M23.25,7.3011 L22.708,7.3011 L22.708,6.5811 L23.25,6.5811 C23.448,6.5811 23.61,6.7421 23.61,6.9411 C23.61,7.1391 23.448,7.3011 23.25,7.3011 L23.25,7.3011 Z" id="Fill-11" fill="#EF7733"></path>
                    <path d="M27.3105,4.1631 C27.0765,4.1631 26.8865,4.3531 26.8865,4.5881 L26.8865,6.8501 C26.8865,7.0981 26.6845,7.3011 26.4355,7.3011 C26.1865,7.3011 25.9845,7.0981 25.9845,6.8501 L25.9845,4.5881 C25.9845,4.3531 25.7935,4.1631 25.5595,4.1631 C25.3255,4.1631 25.1355,4.3531 25.1355,4.5881 L25.1355,6.8501 C25.1355,7.5661 25.7185,8.1491 26.4355,8.1491 C27.1525,8.1491 27.7355,7.5661 27.7355,6.8501 L27.7355,4.5881 C27.7355,4.3531 27.5445,4.1631 27.3105,4.1631" id="Fill-12" fill="#EF7733"></path>
                    <path d="M30.8623,4.2607 C30.6813,4.1117 30.4143,4.1367 30.2643,4.3167 L29.7163,4.9797 L29.1673,4.3167 C29.0173,4.1367 28.7503,4.1117 28.5693,4.2607 C28.3893,4.4097 28.3643,4.6777 28.5133,4.8587 L29.2913,5.7987 L29.2913,7.7247 C29.2913,7.9597 29.4813,8.1497 29.7163,8.1497 C29.9503,8.1497 30.1403,7.9597 30.1403,7.7247 L30.1403,5.7987 L30.9183,4.8587 C31.0673,4.6777 31.0423,4.4097 30.8623,4.2607" id="Fill-13" fill="#EF7733"></path>
                    <path d="M30.375,16.5625 C30.106,16.5645 29.843,16.6305 29.605,16.7555 C29.096,15.6275 27.768,15.1265 26.639,15.6365 C26.142,15.8615 25.744,16.2595 25.52,16.7555 C24.692,16.3295 23.677,16.6535 23.249,17.4795 C22.822,18.3065 23.146,19.3225 23.974,19.7505 C24.213,19.8745 24.479,19.9385 24.75,19.9375115 L30.375,19.9375115 C31.307,19.9375115 32.062,19.1815 32.062,18.2495 C32.062,17.3185 31.307,16.5625 30.375,16.5625" id="Fill-14" fill="#0D58AC"></path>
                </g>
            </g>
        </g>
        <g id="Group-22" transform="translate(696.000000, 25.000000)">
            <path d="M21,0 C32.598,0 42,9.402 42,21 C42,32.598 32.598,42 21,42 C9.402,42 0,32.598 0,21 C0,9.402 9.402,0 21,0" id="Fill-1" fill="#DEE9F6"></path>
            <g id="Group-21" transform="translate(3.000000, 6.000000)">
                <path d="M16.4404,21.6396 L2.4614,21.5876 L0.0294,28.6976 C-0.0896,29.0456 0.1694,29.4086 0.5384,29.4086 L16.7234,29.4086 L16.9754,22.1746 C16.9744,21.8796 16.7354,21.6406 16.4404,21.6396" id="Fill-3" fill="#0D58AC"></path>
                <path d="M34.165,22.9521 L33.231,19.9411 L20.149,19.9421 C19.878,19.9421 19.648,19.7401 19.616,19.4711 L19.334,14.8681 L17.315,14.8391 L17.315,19.0831 C17.315,19.3801 17.075,19.7611 16.778,19.7611 L3.045,19.7611 L2.461,21.5881 L16.44,21.6401 C16.735,21.6401 16.975,21.8801 16.976,22.1751 L16.724,29.4081 L19.494,29.4041 L19.491,22.9601 L34.165,22.9521 Z" id="Fill-5" fill="#FFFFFF"></path>
                <path d="M17.3154,14.8389 L5.1734,14.7888949 C4.9424,14.7879 4.7374,14.9339 4.6624,15.1519 L3.0454,19.7609 L16.7774,19.7609 C17.0744,19.7609 17.3154,19.5209 17.3154,19.2239 L17.3154,14.8389 Z" id="Fill-7" fill="#0D58AC"></path>
                <path d="M35.4619,29.4082 C35.8239,29.4082 36.0829,29.0562 35.9749,28.7112 L33.7759,21.6472 L20.0289,21.7942 C19.7329,21.7942 19.4909,22.0352 19.4918969,22.3322 L19.4939,29.4042 L35.4619,29.4082 Z" id="Fill-9" fill="#0D58AC"></path>
                <path d="M31.1475,14.7797802 L19.3345,14.8678 L19.6165,19.4708 C19.6485,19.7398 19.8775,19.9428 20.1495,19.9428 L33.2315,19.9418 L31.6635,15.1498 C31.5895,14.9278 31.3815,14.7778 31.1475,14.7797802" id="Fill-11" fill="#0D58AC"></path>
                <path d="M24.1113,14.4878 C23.7653,13.9058 23.6013,13.2338 23.6403,12.5578 C23.7513,10.8598 25.1073,9.3548 26.9763,9.3548 C28.8463,9.3548 30.2033,10.8598 30.3133,12.5578 C30.3603,13.3818 30.1093,14.1948 29.6073,14.8488 L27.9093,17.1128 L26.9763,18.3558 L24.3463,14.8488 C24.2603,14.7338 24.1823,14.6128 24.1113,14.4878" id="Fill-13" fill="#EF7733"></path>
                <path d="M26.9639,10.935999 C27.9239,10.939 28.6999,11.72 28.6969087,12.681 C28.6929,13.641 27.9129,14.417 26.9519,14.4140087 C25.9939,14.411 25.2189,13.633 25.2189,12.675 C25.2209,11.713 26.0009,10.935 26.9629,10.935999 L26.9639,10.935999 Z" id="Fill-15" fill="#FFFFFF"></path>
                <path d="M20.1836,6.5107 C19.9576,3.0587 17.1996,-0.0003 13.3996,-0.0003 C9.6006,-0.0003 6.8406,3.0587 6.6156,6.5107 C6.5036,8.1947 7.0666,9.8227 8.0506,11.1697 L13.3996,18.2977 L18.7476,11.1697 C19.7686,9.8387 20.2786,8.1857 20.1836,6.5107" id="Fill-17" fill="#EF7733"></path>
                <path d="M13.3711,2.85839622 C15.5711,2.8654 17.3491,4.6534 17.3421206,6.8534 C17.3351,9.0534 15.5461,10.8314 13.3471,10.8244206 C11.1511,10.8174 9.3751,9.0364 9.37609958,6.8404 C9.3791,4.6384 11.1681,2.8554 13.3711,2.85839622" id="Fill-19" fill="#FFFFFF"></path>
            </g>
        </g>
        <g id="Group-16" transform="translate(781.000000, 25.000000)">
            <path d="M21,0 C32.598,0 42,9.402 42,21 C42,32.598 32.598,42 21,42 C9.402,42 0,32.598 0,21 C0,9.402 9.402,0 21,0" id="Fill-1" fill="#DEE9F6"></path>
            <g id="Group-15">
                <polygon id="Fill-3" fill="#FFFFFF" points="15.5337 4 8.9997 10.534 8.9997 35.999 32.1247 35.999 32.1247 4"></polygon>
                <polygon id="Fill-5" fill="#0D58AC" points="15.5337 4 8.9997 10.534 15.5337 10.533"></polygon>
                <mask id="mask-8" fill="white">
                    <use xlink:href="#path-7"></use>
                </mask>
                <g id="Clip-8"></g>
                <polygon id="Fill-7" fill="#EF7733" mask="url(#mask-8)" points="13.516 29.071 27.609 29.071 27.609 28.114 13.516 28.114"></polygon>
                <polygon id="Fill-9" fill="#EF7733" mask="url(#mask-8)" points="13.516 31.378 27.609 31.378 27.609 30.422 13.516 30.422"></polygon>
                <polygon id="Fill-10" fill="#EF7733" mask="url(#mask-8)" points="13.516 33.686 27.609 33.686 27.609 32.729 13.516 32.729"></polygon>
                <path d="M27.084,16.3955 L27.084,24.7795 C27.084,25.3015 26.674,25.7105 26.152,25.7105 L14.973,25.7105 C14.452,25.7105 14.042,25.3015 14.042,24.7795 L14.042,16.3955 L20.563,10.8065 L27.084,16.3955 Z" id="Fill-11" fill="#0D58AC" mask="url(#mask-8)"></path>
                <path d="M28.667,17.9795 C28.313,18.3525 27.717,18.3525 27.363,17.9795 L20.563,11.1975 L13.762,17.9795 C13.408,18.3525 12.812,18.3525 12.458,17.9795 C12.085,17.6255 12.085,17.0285 12.458,16.6755 L19.911,9.2225 C20.078,9.0365 20.321,8.9435 20.563,8.9435 C20.805,8.9435 21.047,9.0365 21.215,9.2225 L28.667,16.6755 C29.04,17.0285 29.04,17.6255 28.667,17.9795" id="Fill-12" fill="#EF7733" mask="url(#mask-8)"></path>
                <path d="M21.4941,15.4644 C21.4941,15.9854 21.0841,16.3954 20.5621,16.3954 C20.0411,16.3954 19.6311,15.9854 19.6311,15.4644 C19.6311,14.9424 20.0411,14.5324 20.5621,14.5324 C21.0841,14.5324 21.4941,14.9424 21.4941,15.4644" id="Fill-13" fill="#EF7733" mask="url(#mask-8)"></path>
                <path d="M22.9004,19.7236 L22.9004,25.7106 L18.2254,25.7106 L18.2254,19.7236 C18.2254,19.2446 18.5674,18.8686 19.0044,18.8686 L22.1214,18.8686 C22.5574,18.8686 22.9004,19.2446 22.9004,19.7236" id="Fill-14" fill="#EF7733" mask="url(#mask-8)"></path>
            </g>
        </g>
        <g id="Group-28" transform="translate(866.000000, 25.000000)">
            <path d="M21,0 C32.598,0 42,9.402 42,21 C42,32.598 32.598,42 21,42 C9.402,42 0,32.598 0,21 C0,9.402 9.402,0 21,0" id="Fill-1" fill="#DEE9F6"></path>
            <g id="Group-27" transform="translate(6.000000, 4.000000)">
                <path d="M18.6172,31.4854 C18.3542,31.4854 18.1412,31.2724 18.1412,31.0094 C18.1412,30.7474 18.3542,30.5354 18.6172,30.5354 C23.4342,30.5354 27.7692,27.2354 28.4192,22.3754 C28.4532,22.1144 28.6922,21.9314 28.9522,21.9664 C29.2132,22.0014 29.3952,22.2404 29.3602,22.5014 C28.6492,27.8284 23.9092,31.4854 18.6172,31.4854" id="Fill-3" fill="#EF7733"></path>
                <path d="M2.5327,11.9878 C2.5087,11.9878 2.4847,11.9858 2.4597,11.9818 C2.2007,11.9428 2.0227,11.6998 2.0627,11.4408 C3.0797,4.8278 9.0947,-0.0002 15.7107,-0.0002 C22.3257,-0.0002 28.3417,4.8278 29.3597,11.4398 C29.3997,11.6998 29.2217,11.9418 28.9617,11.9818 C28.7017,12.0218 28.4597,11.8438 28.4197,11.5848 C27.4737,5.4298 21.8637,0.9498 15.7107,0.9498 C9.5577,0.9498 3.9487,5.4298 3.0017,11.5848 C2.9657,11.8198 2.7627,11.9878 2.5327,11.9878" id="Fill-5" fill="#EF7733"></path>
                <path d="M4.1128,22.4336 L2.5088,22.4336 C1.1228,22.4336 -0.0002,21.3106 -0.0002,19.9246 L-0.0002,14.1066 C-0.0002,12.7216 1.1228,11.5986 2.5088,11.5986 L4.1128,11.5986 L4.1128,22.4336 Z" id="Fill-7" fill="#0D58AC"></path>
                <path d="M6.0161,22.5234 C6.0161,23.0894 5.5571,23.5484 4.9911,23.5484 C4.4251,23.5484 3.9661,23.0894 3.9661,22.5234 L3.9661,11.5074 C3.9661,10.9414 4.4251,10.4824 4.9911,10.4824 C5.5571,10.4824 6.0161,10.9414 6.0161,11.5074 L6.0161,22.5234 Z" id="Fill-9" fill="#EF7733"></path>
                <path d="M27.2451,11.5986 L28.9131,11.5986 C30.2991,11.5986 31.4221,12.7216 31.4221,14.1066 L31.4221,19.9246 C31.4221,21.3106 30.2991,22.4336 28.9131,22.4336 L27.2451,22.4336 L27.2451,11.5986 Z" id="Fill-11" fill="#0D58AC"></path>
                <path d="M25.4053,11.5078 C25.4053,10.9418 25.8643,10.4828 26.4303,10.4828 C26.9973,10.4828 27.4563,10.9418 27.4563,11.5078 L27.4563,22.5238 C27.4563,23.0898 26.9973,23.5488 26.4303,23.5488 C25.8643,23.5488 25.4053,23.0898 25.4053,22.5238 L25.4053,11.5078 Z" id="Fill-13" fill="#EF7733"></path>
                <path d="M13.8936,32 C13.3226,32 12.8596,31.541 12.8596,30.975 C12.8596,30.408 13.3226,29.949 13.8936,29.949 L17.5286,29.949 C18.0986,29.949 18.5616,30.408 18.5616,30.975 C18.5616,31.541 18.0986,32 17.5286,32 L13.8936,32 Z" id="Fill-15" fill="#0D58AC"></path>
                <path d="M20.1523,14.2114 C22.5673,15.4844 24.1823,17.8014 24.1823,20.4494 C24.1823,24.4674 20.4603,27.7254 15.8663,27.7254 C14.6393,27.7254 13.1623,27.4934 12.1133,27.0754 C11.1633,28.1144 9.7973,28.7654 8.2783,28.7654 C9.2553,27.7894 9.5673,26.3984 9.2143,25.1574 C7.9823,23.8884 7.2383,22.2454 7.2383,20.4494 C7.2383,16.4294 11.2733,13.1714 15.8663,13.1714 C17.4343,13.1714 18.9013,13.5514 20.1523,14.2114" id="Fill-17" fill="#FFFFFF"></path>
                <path d="M12.1045,22.5635 L10.6415,22.5635 C10.7055,22.5045 10.7705,22.4455 10.8345,22.3825 C11.7495,21.5015 12.1935,20.7555 12.1935,20.1015 C12.1935,19.0875 11.5125,18.4065 10.4995,18.4065 C9.5645,18.4065 8.8045,19.1675 8.8045,20.1015 C8.8045,20.3685 9.0215,20.5845 9.2885,20.5845 C9.5545,20.5845 9.7715,20.3685 9.7715,20.1015 C9.7715,19.7005 10.0975,19.3735 10.4995,19.3735 C11.2265,19.3735 11.2265,19.9205 11.2265,20.1015 C11.2265,20.7745 9.9295,21.9985 9.0085,22.6535 C8.8365,22.7745 8.7635,22.9935 8.8275,23.1945 C8.8915,23.3945 9.0775,23.5305 9.2885,23.5305 L12.1045,23.5305 C12.3715,23.5305 12.5875,23.3145 12.5875,23.0465 C12.5875,22.7805 12.3715,22.5635 12.1045,22.5635" id="Fill-19" fill="#0D58AC"></path>
                <path d="M15.6479,21.041 L15.3179,21.041 L15.3179,20.904 C15.3179,20.637 15.1019,20.421 14.8349,20.421 C14.5679,20.421 14.3509,20.637 14.3509,20.904 L14.3509,21.041 L13.6839,21.041 L14.7719,19.129 C14.9039,18.897 14.8229,18.602 14.5909,18.47 C14.3589,18.338 14.0639,18.419 13.9319,18.651 L12.4329,21.285 C12.3479,21.436 12.3489,21.619 12.4359,21.768 C12.5219,21.916 12.6809,22.008 12.8539,22.008 L14.3509,22.008 L14.3509,23.047 C14.3509,23.314 14.5679,23.53 14.8349,23.53 C15.1019,23.53 15.3179,23.314 15.3179,23.047 L15.3179,22.008 L15.6479,22.008 C15.9149,22.008 16.1319,21.791 16.1319,21.524 C16.1319,21.258 15.9149,21.041 15.6479,21.041" id="Fill-21" fill="#0D58AC"></path>
                <path d="M18.6865,18.4395 C18.4365,18.3425 18.1575,18.4675 18.0615,18.7165 L16.4615,22.8745 C16.3665,23.1235 16.4905,23.4025 16.7395,23.4985 C16.7965,23.5205 16.8555,23.5315 16.9135,23.5315 C17.1075,23.5315 17.2905,23.4135 17.3645,23.2205 L18.9635,19.0635 C19.0595,18.8145 18.9355,18.5355 18.6865,18.4395" id="Fill-23" fill="#0D58AC"></path>
                <path d="M22.5303,18.6143 C22.4403,18.4843 22.2923,18.4063 22.1343,18.4063 L20.1033,18.4063 C19.8373,18.4063 19.6203,18.6233 19.6203,18.8893 C19.6203,19.1573 19.8373,19.3733 20.1033,19.3733 L21.4383,19.3733 L20.1343,22.8793 C20.0413,23.1293 20.1683,23.4073 20.4183,23.5003 C20.4733,23.5203 20.5313,23.5303 20.5873,23.5303 C20.7833,23.5303 20.9683,23.4103 21.0403,23.2163 L22.5873,19.0583 C22.6413,18.9103 22.6213,18.7443 22.5303,18.6143" id="Fill-25" fill="#0D58AC"></path>
            </g>
        </g>
        <g id="Group-4" transform="translate(951.000000, 25.000000)">
            <polygon id="Fill-1" fill="#F37406" points="24.1695 0.0005 0.0005 23.9475 0.0005 52.8165 53.1935 0.0005"></polygon>
            <path d="M32.8535,4.2629 L33.6265,5.0359 L32.9635,5.6999 L34.4415,7.1769 C34.7415,7.4759 34.9215,7.6449 34.9835,7.6839 C35.0455,7.7189 35.1155,7.7309 35.1905,7.7189 C35.2695,7.7049 35.3405,7.6659 35.4055,7.6019 C35.4955,7.5119 35.5935,7.3509 35.7025,7.1179 L36.5375,7.7879 C36.4085,8.1099 36.2015,8.4139 35.9165,8.6999 C35.7415,8.8749 35.5545,9.0039 35.3565,9.0859 C35.1565,9.1669 34.9765,9.1949 34.8185,9.1689 C34.6595,9.1389 34.4875,9.0569 34.3035,8.9239 C34.1695,8.8319 33.9315,8.6149 33.5885,8.2709 L31.9905,6.6729 L31.5445,7.1179 L30.7715,6.3449 L31.2165,5.8999 L30.4885,5.1709 L30.8955,3.6309 L32.1905,4.9259 L32.8535,4.2629 Z M33.0395,14.1799 L32.0685,13.2099 L33.0395,12.2399 L34.0085,13.2099 L33.0395,14.1799 Z M26.8175,9.3739 L26.5235,7.6299 L27.4215,6.7329 L29.1545,7.0359 L28.3745,7.8169 L27.4595,7.7019 L27.6015,8.5899 L26.8175,9.3739 Z M30.7145,9.4389 C30.4275,9.1649 30.1425,9.0249 29.8595,9.0179 C29.5735,9.0089 29.3325,9.1029 29.1335,9.3009 C28.9215,9.5129 28.8245,9.7649 28.8405,10.0569 C28.8565,10.3499 28.9985,10.6269 29.2655,10.8889 L30.7145,9.4389 Z M31.6405,10.4749 L32.7695,9.6709 C32.9995,10.1489 33.0735,10.6169 32.9905,11.0729 C32.9085,11.5239 32.6655,11.9499 32.2615,12.3529 C31.6245,12.9909 30.9445,13.2549 30.2215,13.1439 C29.6465,13.0519 29.1045,12.7519 28.5955,12.2429 C27.9875,11.6349 27.6715,11.0009 27.6455,10.3409 C27.6185,9.6779 27.8475,9.1029 28.3325,8.6169 C28.8785,8.0719 29.4895,7.8229 30.1655,7.8679 C30.8405,7.9119 31.5425,8.3129 32.2725,9.0699 L29.8415,11.5009 C30.1365,11.7819 30.4395,11.9279 30.7495,11.9389 C31.0585,11.9489 31.3245,11.8409 31.5475,11.6179 C31.6995,11.4659 31.7865,11.2969 31.8065,11.1109 C31.8275,10.9239 31.7715,10.7119 31.6405,10.4749 L31.6405,10.4749 Z M28.4985,15.9519 L24.8315,12.2849 L25.8015,11.3149 L29.4675,14.9819 L28.4985,15.9519 Z M24.3335,11.7879 L23.4365,10.8899 L24.4065,9.9199 L25.3045,10.8179 L24.3335,11.7879 Z M22.9655,17.6589 C23.3455,18.0379 23.6865,18.2589 23.9875,18.3209 C24.4135,18.4109 24.7655,18.3169 25.0445,18.0379 C25.2585,17.8239 25.3495,17.5519 25.3165,17.2199 C25.2845,16.8839 25.0715,16.5189 24.6785,16.1249 C24.2595,15.7059 23.8815,15.4809 23.5455,15.4489 C23.2075,15.4139 22.9195,15.5149 22.6825,15.7529 C22.4505,15.9849 22.3475,16.2689 22.3755,16.6049 C22.4005,16.9389 22.5975,17.2899 22.9655,17.6589 L22.9655,17.6589 Z M23.9155,20.5339 L18.8535,15.4729 L19.8235,14.5029 L21.6465,16.3259 C21.6055,15.6859 21.7895,15.1609 22.1995,14.7509 C22.6455,14.3049 23.1775,14.0969 23.7945,14.1299 C24.4095,14.1599 25.0195,14.4769 25.6245,15.0829 C26.2505,15.7089 26.5825,16.3409 26.6225,16.9779 C26.6635,17.6139 26.4715,18.1439 26.0455,18.5699 C25.8365,18.7799 25.5775,18.9349 25.2695,19.0359 C24.9605,19.1329 24.6295,19.1519 24.2775,19.0949 L24.8165,19.6329 L23.9155,20.5339 Z M18.2305,21.0539 L17.4465,22.1829 C17.2235,22.0239 17.0055,21.9539 16.7945,21.9719 C16.5845,21.9889 16.3895,22.0879 16.2075,22.2689 C15.9655,22.5109 15.8555,22.7879 15.8795,23.1009 C15.9025,23.4099 16.1095,23.7599 16.5005,24.1509 C16.9365,24.5859 17.3155,24.8209 17.6405,24.8559 C17.9665,24.8879 18.2535,24.7809 18.4995,24.5339 C18.6845,24.3499 18.7835,24.1479 18.7965,23.9269 C18.8085,23.7029 18.7105,23.4399 18.5035,23.1359 L19.6185,22.3459 C19.9575,22.8819 20.0975,23.4019 20.0395,23.9059 C19.9825,24.4099 19.7175,24.8979 19.2455,25.3699 C18.7095,25.9059 18.1115,26.1649 17.4535,26.1469 C16.7975,26.1259 16.1705,25.8169 15.5715,25.2179 C14.9665,24.6129 14.6555,23.9819 14.6395,23.3259 C14.6215,22.6679 14.8845,22.0659 15.4305,21.5199 C15.8765,21.0739 16.3285,20.8159 16.7835,20.7469 C17.2395,20.6729 17.7215,20.7759 18.2305,21.0539 L18.2305,21.0539 Z M15.6785,31.5399 L14.7075,30.5709 L15.6785,29.5999 L16.6485,30.5709 L15.6785,31.5399 Z M10.3715,23.7829 L10.8445,23.3089 C11.1295,23.6499 11.2655,24.0069 11.2515,24.3799 C11.2375,24.7479 11.0785,25.0849 10.7715,25.3909 C10.4655,25.6979 10.1275,25.8589 9.7565,25.8749 C9.3865,25.8869 9.0305,25.7489 8.6895,25.4639 L9.1635,24.9909 C9.3425,25.1379 9.5245,25.2049 9.7085,25.1909 C9.8905,25.1749 10.0755,25.0729 10.2645,24.8839 C10.4535,24.6949 10.5555,24.5099 10.5715,24.3279 C10.5855,24.1439 10.5185,23.9619 10.3715,23.7829 L10.3715,23.7829 Z M13.7245,27.2039 C13.6415,27.3699 13.4935,27.6159 13.2825,27.9429 C13.0705,28.2699 12.9505,28.5019 12.9225,28.6409 C12.8865,28.8569 12.9365,29.0339 13.0745,29.1719 C13.2105,29.3079 13.3785,29.3739 13.5795,29.3719 C13.7795,29.3699 13.9575,29.2899 14.1145,29.1339 C14.2895,28.9589 14.3985,28.7349 14.4415,28.4609 C14.4725,28.2559 14.4415,28.0719 14.3525,27.9089 C14.2945,27.7999 14.1495,27.6299 13.9175,27.3979 L13.7245,27.2039 Z M11.6385,27.7149 L10.5995,28.4369 C10.3435,27.9839 10.2515,27.5509 10.3235,27.1379 C10.3945,26.7259 10.6685,26.2829 11.1455,25.8059 C11.5775,25.3729 11.9515,25.1029 12.2675,24.9939 C12.5805,24.8839 12.8585,24.8659 13.1025,24.9389 C13.3465,25.0079 13.6795,25.2529 14.1005,25.6749 L15.2225,26.8169 C15.5445,27.1399 15.7975,27.3629 15.9815,27.4869 C16.1665,27.6069 16.3885,27.7119 16.6485,27.8019 L15.6885,28.7609 C15.5985,28.7219 15.4725,28.6579 15.3085,28.5679 C15.2345,28.5269 15.1855,28.4999 15.1605,28.4889 C15.1555,28.8159 15.0995,29.1139 14.9915,29.3829 C14.8825,29.6519 14.7215,29.8939 14.5075,30.1079 C14.1305,30.4859 13.7295,30.6809 13.3065,30.6949 C12.8845,30.7059 12.5175,30.5559 12.2045,30.2419 C11.9975,30.0349 11.8625,29.8019 11.8005,29.5409 C11.7365,29.2799 11.7495,29.0169 11.8425,28.7539 C11.9345,28.4879 12.1165,28.1539 12.3875,27.7529 C12.7555,27.2149 12.9905,26.8209 13.0925,26.5729 L12.9955,26.4749 C12.8095,26.2889 12.6305,26.2029 12.4605,26.2169 C12.2875,26.2279 12.0735,26.3619 11.8175,26.6169 C11.6455,26.7899 11.5455,26.9589 11.5175,27.1249 C11.4875,27.2879 11.5275,27.4849 11.6385,27.7149 L11.6385,27.7149 Z M4.9535,31.0859 L6.3065,32.4389 L7.3915,31.3549 L8.0335,31.9969 L6.9485,33.0809 L8.3055,34.4389 L9.0725,33.6719 C9.4105,33.3329 9.6265,33.0619 9.7215,32.8569 C9.8505,32.5899 9.8745,32.3129 9.7935,32.0249 C9.6785,31.6189 9.3545,31.1509 8.8205,30.6169 C8.4405,30.2369 8.1175,29.9749 7.8505,29.8319 C7.5825,29.6849 7.3265,29.6079 7.0805,29.6009 C6.8355,29.5919 6.5935,29.6579 6.3515,29.7979 C6.1675,29.9089 5.8555,30.1839 5.4165,30.6229 L4.9535,31.0859 Z M3.0785,31.2479 L4.9425,29.3839 C5.3715,28.9549 5.7285,28.6639 6.0165,28.5099 C6.4055,28.3009 6.8195,28.2039 7.2595,28.2199 C7.6975,28.2339 8.1295,28.3489 8.5585,28.5659 C8.9885,28.7799 9.4405,29.1229 9.9155,29.5979 C10.3315,30.0139 10.6475,30.4499 10.8645,30.9069 C11.0805,31.3579 11.1855,31.8099 11.1785,32.2629 C11.1695,32.6089 11.0635,32.9789 10.8605,33.3749 C10.7065,33.6719 10.4395,34.0099 10.0595,34.3899 L8.1405,36.3099 L5.9305,34.0999 L5.4055,34.6249 L4.7635,33.9829 L5.2885,33.4579 L3.0785,31.2479 Z" id="Fill-2" fill="#FFFFFF"></path>
        </g>
        <g id="Group-6" transform="translate(1048.000000, 43.000000)">
            <path d="M15.6797,2.2705 C14.8347,1.4535 13.6897,0.9955 12.4927,0.9955 C11.2987,0.9955 10.1537,1.4535 9.3077,2.2705 L8.9997,2.5685 L8.6917,2.2705 C7.8467,1.4535 6.7007,0.9955 5.5057,0.9955 C4.3107,0.9955 3.1637,1.4535 2.3197,2.2705 C1.4737,3.0875 0.9997,4.1955 0.9997,5.3515 C0.9997,6.4995 1.4697,7.6025 2.3047,8.4175 L8.4187,14.6745 C8.5697,14.8295 8.7807,14.9165 8.9997,14.9165 C9.2197,14.9165 9.4307,14.8295 9.5817,14.6745 L15.6947,8.4175 C16.5307,7.6025 16.9997,6.4995 16.9997,5.3515 C16.9997,4.1955 16.5247,3.0875 15.6797,2.2705" id="Fill-1" fill-opacity="0.5" fill="#000000"></path>
            <path d="M1.4683,8.4829 C0.5283,7.5509 0.0003,6.2919 0.0003,4.9789 C0.0003,3.6579 0.5333,2.3909 1.4843,1.4579 C2.4353,0.5239 3.7243,-0.0001 5.0693,-0.0001 C6.4133,-0.0001 7.7033,0.5239 8.6533,1.4579 L9.0003,1.7979 L9.3463,1.4579 C10.2973,0.5239 11.5863,-0.0001 12.9303,-0.0001 C14.2753,-0.0001 15.5643,0.5239 16.5143,1.4579 C17.4663,2.3909 18.0003,3.6579 18.0003,4.9789 C18.0003,6.2919 17.4713,7.5509 16.5303,8.4829 L9.6543,15.6339 C9.4843,15.8099 9.2473,15.9109 9.0003,15.9109 C8.7523,15.9109 8.5153,15.8099 8.3453,15.6339 L1.4683,8.4829 Z M9.0003,13.7399 L15.2243,7.2679 L15.2433,7.2499 C15.8553,6.6469 16.2003,5.8309 16.2003,4.9789 C16.2003,4.1279 15.8553,3.3109 15.2433,2.7089 C14.6303,2.1059 13.7983,1.7679 12.9303,1.7679 C12.0633,1.7679 11.2313,2.1069 10.6183,2.7089 L9.6363,3.6739 C9.2843,4.0189 8.7153,4.0189 8.3633,3.6739 L7.3803,2.7089 C6.7683,2.1059 5.9363,1.7679 5.0693,1.7679 C4.2013,1.7679 3.3703,2.1069 2.7573,2.7089 C2.1443,3.3109 1.8003,4.1279 1.8003,4.9789 C1.8003,5.8309 2.1443,6.6469 2.7573,7.2499 C2.7633,7.2559 2.7693,7.2609 2.7753,7.2679 L9.0003,13.7399 Z" id="Fill-3" fill="#FFFFFF"></path>
        </g>
        <g id="Group-6" transform="translate(1112.000000, 43.000000)">
            <path d="M15.6797,3.2705 C14.8347,2.4535 13.6897,1.9955 12.4927,1.9955 C11.2987,1.9955 10.1537,2.4535 9.3077,3.2705 L8.9997,3.5685 L8.6917,3.2705 C7.8467,2.4535 6.7007,1.9955 5.5057,1.9955 C4.3107,1.9955 3.1637,2.4535 2.3197,3.2705 C1.4737,4.0875 0.9997,5.1955 0.9997,6.3515 C0.9997,7.4995 1.4697,8.6025 2.3047,9.4175 L8.4187,15.6745 C8.5697,15.8295 8.7807,15.9165 8.9997,15.9165 C9.2197,15.9165 9.4307,15.8295 9.5817,15.6745 L15.6947,9.4175 C16.5307,8.6025 16.9997,7.4995 16.9997,6.3515 C16.9997,5.1955 16.5247,4.0875 15.6797,3.2705" id="Fill-1" fill="#F37406"></path>
            <g id="Group-5" transform="translate(0.000000, 0.910500)">
                <mask id="mask-10" fill="white">
                    <use xlink:href="#path-9"></use>
                </mask>
                <g id="Clip-4"></g>
                <path d="M1.4683,8.5724 C0.5283,7.6404 0.0003,6.3814 0.0003,5.0684 C0.0003,3.7474 0.5333,2.4804 1.4843,1.5474 C2.4353,0.6134 3.7243,0.0894 5.0693,0.0894 C6.4133,0.0894 7.7033,0.6134 8.6533,1.5474 L9.0003,1.8874 L9.3463,1.5474 C10.2973,0.6134 11.5863,0.0894 12.9303,0.0894 C14.2753,0.0894 15.5643,0.6134 16.5143,1.5474 C17.4663,2.4804 18.0003,3.7474 18.0003,5.0684 C18.0003,6.3814 17.4713,7.6404 16.5303,8.5724 L9.6543,15.7234 C9.4843,15.8994 9.2473,16.0004 9.0003,16.0004 C8.7523,16.0004 8.5153,15.8994 8.3453,15.7234 L1.4683,8.5724 Z M9.0003,13.8294 L15.2243,7.3574 L15.2433,7.3394 C15.8553,6.7364 16.2003,5.9204 16.2003,5.0684 C16.2003,4.2174 15.8553,3.4004 15.2433,2.7984 C14.6303,2.1954 13.7983,1.8574 12.9303,1.8574 C12.0633,1.8574 11.2313,2.1964 10.6183,2.7984 L9.6363,3.7634 C9.2843,4.1084 8.7153,4.1084 8.3633,3.7634 L7.3803,2.7984 C6.7683,2.1954 5.9363,1.8574 5.0693,1.8574 C4.2013,1.8574 3.3703,2.1964 2.7573,2.7984 C2.1443,3.4004 1.8003,4.2174 1.8003,5.0684 C1.8003,5.9204 2.1443,6.7364 2.7573,7.3394 C2.7633,7.3454 2.7693,7.3504 2.7753,7.3574 L9.0003,13.8294 Z" id="Fill-3" fill="#F37406" mask="url(#mask-10)"></path>
            </g>
        </g>
        <g id="Group-3" transform="translate(35.000000, 111.000000)">
            <mask id="mask-12" fill="white">
                <use xlink:href="#path-11"></use>
            </mask>
            <g id="Clip-2"></g>
            <polygon id="Fill-1" fill="#AAAAAA" mask="url(#mask-12)" points="11.9995 -0.0001 -0.0005 4.8769 6.0205 5.9419 7.0955 11.9329"></polygon>
        </g>
        <g id="Group-3" transform="translate(96.000000, 111.000000)">
            <mask id="mask-14" fill="white">
                <use xlink:href="#path-13"></use>
            </mask>
            <g id="Clip-2"></g>
            <path d="M1.1724,5.9585 L1.1724,1.9245 C1.1724,1.2485 1.7254,0.6995 2.4034,0.6995 C3.0334,0.6995 3.5534,1.1705 3.6264,1.7765 C2.8944,1.9405 2.3454,2.5925 2.3454,3.3695 L2.3454,3.8355 L5.6294,3.8355 L5.6294,3.3695 C5.6294,2.5865 5.0724,1.9315 4.3324,1.7725 C4.2544,0.7825 3.4204,0.0005 2.4034,0.0005 C1.3374,0.0005 0.4694,0.8635 0.4694,1.9245 L0.4694,5.9585 L0.0004,5.9585 L0.0004,7.3575 L0.4694,7.3575 L0.4694,8.3185 C0.4694,9.4305 1.2904,10.3545 2.3614,10.5225 L3.0644,10.5505 L8.9354,10.5505 L9.6384,10.5225 C10.7094,10.3545 11.5304,9.4305 11.5304,8.3185 L11.5304,7.3575 L11.9994,7.3575 L11.9994,5.9585 L1.1724,5.9585 Z" id="Fill-1" fill="#AAAAAA" mask="url(#mask-14)"></path>
        </g>
        <g id="Group-3" transform="translate(160.000000, 113.000000)">
            <mask id="mask-16" fill="white">
                <use xlink:href="#path-15"></use>
            </mask>
            <g id="Clip-2"></g>
            <path d="M5.9766,2.31619 L10.9456,2.31619 C11.5276,2.31619 12.0006,2.78519 12.0006,3.36519 L12.0006,4.41419 L4.9216,4.41419 L4.9216,3.36519 C4.9216,2.78519 5.3936,2.31619 5.9766,2.31619 L5.9766,2.31619 Z M3.1636,2.31619 C2.5816,2.31619 2.1096,2.78519 2.1096,3.36519 L2.1096,4.41419 L4.2186,4.41419 L4.2186,3.36519 C4.2186,2.78519 3.7466,2.31619 3.1636,2.31619 L3.1636,2.31619 Z M-0.0004,0.00019 L-0.0004,8.39019 L1.4066,8.39019 L1.4066,6.99219 L10.5936,6.99219 L10.5936,8.39019 L12.0006,8.39019 L12.0006,4.89419 L1.4066,4.89419 L1.4066,0.00019 L-0.0004,0.00019 Z" id="Fill-1" fill="#AAAAAA" mask="url(#mask-16)"></path>
        </g>
        <g id="Group-3" transform="translate(221.000000, 112.000000)">
            <mask id="mask-18" fill="white">
                <use xlink:href="#path-17"></use>
            </mask>
            <g id="Clip-2"></g>
            <path d="M8.5151,2.1748 C7.6731,0.8128 6.2091,-0.0002 4.5991,-0.0002 C2.9891,-0.0002 1.5251,0.8128 0.6821,2.1748 C-0.1559,3.5308 -0.2259,5.1898 0.4961,6.6108 C0.5021,6.6228 0.5091,6.6338 0.5161,6.6448 L3.6861,11.4428 C3.8891,11.7498 4.2301,11.9328 4.5991,11.9328 C4.9681,11.9328 5.3091,11.7498 5.5121,11.4428 L8.6821,6.6448 C8.6891,6.6338 8.6961,6.6228 8.7021,6.6108 C9.4241,5.1898 9.3551,3.5308 8.5151,2.1748 M4.5991,6.8608 C3.2961,6.8608 2.2361,5.8088 2.2361,4.5168 C2.2361,3.2248 3.2961,2.1748 4.5991,2.1748 C5.9021,2.1748 6.9621,3.2248 6.9621,4.5168 C6.9621,5.8088 5.9021,6.8608 4.5991,6.8608" id="Fill-1" fill="#AAAAAA" mask="url(#mask-18)"></path>
        </g>
        <g id="Group-5" transform="translate(281.000000, 114.000000)" stroke="#FFFFFF" stroke-linecap="square" stroke-width="2">
            <line x1="0.4021" y1="0.402" x2="3.7941" y2="4.824" id="Stroke-1"></line>
            <line x1="0.4021" y1="9.1813" x2="3.7941" y2="4.7593" id="Stroke-3"></line>
        </g>
        <g id="Group-3" transform="translate(337.000000, 109.000000)">
            <mask id="mask-20" fill="white">
                <use xlink:href="#path-19"></use>
            </mask>
            <g id="Clip-2"></g>
            <path d="M0.001,7.5452 C0.044,7.1702 0.37,6.8882 0.754,6.8962 L21.444,6.8962 L15.651,1.2612 C15.505,1.1252 15.421,0.9372 15.418,0.7402 C15.414,0.3362 15.743,0.0042 16.154,0.000162927133 C16.356,-0.0018 16.551,0.0772 16.692,0.2182 L23.778,7.1062 C24.071,7.3892 24.074,7.8532 23.786,8.1412 C23.783,8.1432 23.78,8.1462 23.778,8.1492 L16.692,15.0362 C16.415,15.3342 15.944,15.3542 15.641,15.0812 C15.339,14.8072 15.318,14.3442 15.596,14.0462 C15.613,14.0282 15.632,14.0102 15.651,13.9942 L21.444,8.3592 L0.754,8.3592 C0.343,8.3642 0.006,8.0412 0.001,7.6362 L0.001,7.6182 C0,7.5942 0,7.5692 0.001,7.5452" id="Fill-1" fill="#FFFFFF" mask="url(#mask-20)"></path>
        </g>
        <g id="Group-7" transform="translate(410.000000, 103.000000)">
            <path d="M14.0002,0.4999 C21.4562,0.4999 27.5002,6.5439 27.5002,13.9999 C27.5002,21.4559 21.4562,27.4999 14.0002,27.4999 C6.5442,27.4999 0.5002,21.4559 0.5002,13.9999 C0.5002,6.5439 6.5442,0.4999 14.0002,0.4999" id="Fill-1" fill-opacity="0.5" fill="#FFFFFF"></path>
            <path d="M14.0002,0.4999 C21.4562,0.4999 27.5002,6.5439 27.5002,13.9999 C27.5002,21.4559 21.4562,27.4999 14.0002,27.4999 C6.5442,27.4999 0.5002,21.4559 0.5002,13.9999 C0.5002,6.5439 6.5442,0.4999 14.0002,0.4999 Z" id="Stroke-3" stroke="#555555"></path>
            <path d="M16.5402,8.6566 L18.0002,8.6566 L18.0002,6.1126 C17.7482,6.0776 16.8822,5.9996 15.8732,5.9996 C13.7672,5.9996 12.3242,7.3246 12.3242,9.7596 L12.3242,11.9996 L10.0002,11.9996 L10.0002,14.8436 L12.3242,14.8436 L12.3242,21.9996 L15.1732,21.9996 L15.1732,14.8446 L17.4032,14.8446 L17.7572,12.0006 L15.1722,12.0006 L15.1722,10.0416 C15.1732,9.2186 15.3942,8.6566 16.5402,8.6566" id="Fill-5" fill="#555555"></path>
        </g>
        <g id="Group-7" transform="translate(487.000000, 103.000000)">
            <path d="M13.9999,0.4999 C21.4559,0.4999 27.4999,6.5439 27.4999,13.9999 C27.4999,21.4559 21.4559,27.4999 13.9999,27.4999 C6.5439,27.4999 0.4999,21.4559 0.4999,13.9999 C0.4999,6.5439 6.5439,0.4999 13.9999,0.4999" id="Fill-1" fill-opacity="0.5" fill="#FFFFFF"></path>
            <path d="M13.9999,0.4999 C21.4559,0.4999 27.4999,6.5439 27.4999,13.9999 C27.4999,21.4559 21.4559,27.4999 13.9999,27.4999 C6.5439,27.4999 0.4999,21.4559 0.4999,13.9999 C0.4999,6.5439 6.5439,0.4999 13.9999,0.4999 Z" id="Stroke-3" stroke="#555555"></path>
            <path d="M21.3202,10.0599 C20.8862,9.2879 20.4152,9.1459 19.4562,9.0919 C18.4982,9.0269 16.0892,8.9999 14.0022,8.9999 C11.9112,8.9999 9.5012,9.0269 8.5442,9.0909 C7.5872,9.1459 7.1152,9.2869 6.6772,10.0599 C6.2302,10.8309 6.0002,12.1589 6.0002,14.4969 L6.0002,14.4999 L6.0002,14.5029 L6.0002,14.5049 C6.0002,16.8329 6.2302,18.1709 6.6772,18.9339 C7.1152,19.7059 7.5862,19.8459 8.5432,19.9109 C9.5012,19.9669 11.9112,19.9999 14.0022,19.9999 C16.0892,19.9999 18.4982,19.9669 19.4572,19.9119 C20.4162,19.8469 20.8872,19.7069 21.3212,18.9349 C21.7722,18.1719 22.0002,16.8339 22.0002,14.5059 L22.0002,14.5009 L22.0002,14.4979 C22.0002,12.1589 21.7722,10.8309 21.3202,10.0599 L21.3202,10.0599 Z M12.0002,17.4999 L12.0002,11.4999 L17.0002,14.4999 L12.0002,17.4999 Z" id="Fill-5" fill="#555555"></path>
        </g>
        <g id="Group-10" transform="translate(564.000000, 103.000000)">
            <path d="M14.0001,0.4999 C21.4561,0.4999 27.5001,6.5439 27.5001,13.9999 C27.5001,21.4559 21.4561,27.4999 14.0001,27.4999 C6.5441,27.4999 0.5001,21.4559 0.5001,13.9999 C0.5001,6.5439 6.5441,0.4999 14.0001,0.4999" id="Fill-1" fill-opacity="0.5" fill="#FFFFFF"></path>
            <path d="M14.0001,0.4999 C21.4561,0.4999 27.5001,6.5439 27.5001,13.9999 C27.5001,21.4559 21.4561,27.4999 14.0001,27.4999 C6.5441,27.4999 0.5001,21.4559 0.5001,13.9999 C0.5001,6.5439 6.5441,0.4999 14.0001,0.4999 Z" id="Stroke-3" stroke="#555555"></path>
            <path d="M21.9962,21.9999 L21.9962,21.9999 L22.0002,21.9999 L22.0002,16.1309 C22.0002,13.2609 21.3822,11.0489 18.0262,11.0489 C16.4132,11.0489 15.3302,11.9349 14.8882,12.7739 L14.8412,12.7739 L14.8412,11.3169 L11.6592,11.3169 L11.6592,21.9999 L14.9732,21.9999 L14.9732,16.7099 C14.9732,15.3169 15.2372,13.9709 16.9612,13.9709 C18.6612,13.9709 18.6862,15.5599 18.6862,16.7989 L18.6862,21.9999 L21.9962,21.9999 Z" id="Fill-5" fill="#555555"></path>
            <mask id="mask-22" fill="white">
                <use xlink:href="#path-21"></use>
            </mask>
            <g id="Clip-8"></g>
            <polygon id="Fill-7" fill="#555555" mask="url(#mask-22)" points="6.264 22 9.581 22 9.581 11.318 6.264 11.318"></polygon>
            <path d="M7.9215,5.9999 C6.8605,5.9999 6.0005,6.8609 6.0005,7.9209 C6.0005,8.9819 6.8605,9.8609 7.9215,9.8609 C8.9825,9.8609 9.8425,8.9819 9.8425,7.9209 C9.8415,6.8609 8.9815,5.9999 7.9215,5.9999" id="Fill-9" fill="#555555" mask="url(#mask-22)"></path>
        </g>
        <g id="Group-13" transform="translate(641.000000, 103.000000)">
            <path d="M13.9999,0.4999 C21.4559,0.4999 27.4999,6.5439 27.4999,13.9999 C27.4999,21.4559 21.4559,27.4999 13.9999,27.4999 C6.5439,27.4999 0.4999,21.4559 0.4999,13.9999 C0.4999,6.5439 6.5439,0.4999 13.9999,0.4999" id="Fill-1" fill-opacity="0.5" fill="#FFFFFF"></path>
            <path d="M13.9999,0.4999 C21.4559,0.4999 27.4999,6.5439 27.4999,13.9999 C27.4999,21.4559 21.4559,27.4999 13.9999,27.4999 C6.5439,27.4999 0.4999,21.4559 0.4999,13.9999 C0.4999,6.5439 6.5439,0.4999 13.9999,0.4999 Z" id="Stroke-3" stroke="#555555"></path>
            <path d="M15.8456,9.9999 C15.5056,10.0049 15.2356,10.2849 15.2406,10.6239 L15.2406,16.1629 C15.2356,16.5019 15.5066,16.7819 15.8456,16.7859 C16.1866,16.7909 16.4656,16.5199 16.4706,16.1799 L16.4706,16.1629 L16.4706,10.6239 C16.4746,10.2839 16.2026,10.0039 15.8636,9.9999 L15.8456,9.9999 Z" id="Fill-5" fill="#555555"></path>
            <path d="M6.6244,10.6239 C6.2844,10.6189 6.0044,10.8909 5.9994,11.2309 C5.9954,11.5699 6.2674,11.8499 6.6074,11.8549 L6.6244,11.8549 L8.5914,11.8549 L6.1024,15.8369 C5.9224,16.1249 6.0104,16.5049 6.2994,16.6849 C6.3964,16.7449 6.5094,16.7779 6.6244,16.7779 L9.7014,16.7779 C10.0414,16.7829 10.3204,16.5109 10.3254,16.1709 C10.3294,15.8319 10.0584,15.5519 9.7184,15.5469 L9.7014,15.5469 L7.7334,15.5469 L10.2234,11.5649 C10.4024,11.2769 10.3144,10.8969 10.0264,10.7169 C9.9284,10.6569 9.8164,10.6239 9.7014,10.6239 L6.6244,10.6239 Z" id="Fill-7" fill="#555555"></path>
            <path d="M14.0174,12.4613 L13.9984,12.4613 C13.7944,12.4653 13.6044,12.5713 13.4934,12.7423 C13.1864,12.5743 12.8424,12.4703 12.4704,12.4703 C11.2884,12.4703 10.3164,13.4413 10.3164,14.6243 C10.3164,15.8063 11.2884,16.7773 12.4704,16.7773 C12.8414,16.7773 13.1864,16.6723 13.4924,16.5053 C13.6764,16.7913 14.0574,16.8723 14.3434,16.6883 C14.5204,16.5733 14.6274,16.3743 14.6244,16.1623 L14.6244,14.6243 L14.6244,13.0853 C14.6284,12.7463 14.3564,12.4663 14.0174,12.4613 M12.4704,15.5463 C11.9534,15.5463 11.5474,15.1413 11.5474,14.6243 C11.5474,14.1073 11.9534,13.7013 12.4704,13.7013 C12.9874,13.7013 13.3934,14.1073 13.3934,14.6243 C13.3934,15.1413 12.9874,15.5463 12.4704,15.5463" id="Fill-9" fill="#555555"></path>
            <path d="M19.2396,12.4701 C18.0576,12.4701 17.0856,13.4421 17.0856,14.6241 C17.0856,15.8061 18.0576,16.7781 19.2396,16.7781 C20.4216,16.7781 21.3936,15.8061 21.3936,14.6241 C21.3936,13.4421 20.4216,12.4701 19.2396,12.4701 M19.2396,15.5471 C18.7216,15.5471 18.3166,15.1411 18.3166,14.6241 C18.3166,14.1071 18.7216,13.7011 19.2396,13.7011 C19.7566,13.7011 20.1626,14.1071 20.1626,14.6241 C20.1626,15.1411 19.7566,15.5471 19.2396,15.5471" id="Fill-11" fill="#555555"></path>
        </g>
        <g id="Group-9" transform="translate(718.000000, 106.000000)">
            <mask id="mask-24" fill="white">
                <use xlink:href="#path-23"></use>
            </mask>
            <g id="Clip-2"></g>
            <polygon id="Fill-1" fill="#EF7733" mask="url(#mask-24)" points="2.878 6.9614 5.667 6.9614 5.667 1.6934 2.878 1.6934"></polygon>
            <polygon id="Fill-3" fill="#0D58AC" mask="url(#mask-24)" points="2.3908 8.7766 2.3908 21.2616 18.8598 21.2616 18.8598 8.7766 10.6248 1.2506"></polygon>
            <polygon id="Fill-4" fill="#EF7733" mask="url(#mask-24)" points="13.1525 17.155 12.3075 16.31 13.7155 14.901 14.5615 15.746"></polygon>
            <path d="M18.9924,10.592 L10.6254,2.933 L2.2584,10.592 C1.7704,11.079 0.9304,11.079 0.3984,10.592 C-0.1326,10.105 -0.1326,9.352 0.3984,8.865 L9.6954,0.365 C10.2264,-0.122 11.0684,-0.122 11.5994,0.365 L20.8964,8.865 C21.4274,9.352 21.4274,10.105 20.8964,10.592 C20.3204,11.079 19.4794,11.079 18.9924,10.592" id="Fill-5" fill="#EF7733" mask="url(#mask-24)"></path>
            <path d="M13.237,17.6311 C13.68,18.5611 14.388,19.6231 15.406,20.6411 C16.115,21.3941 17.31,21.3941 18.018,20.6411 C18.727,19.9331 18.727,18.7381 18.018,18.0291 C17,17.0551 15.938,16.3031 15.008,15.8601 L13.237,17.6311 Z" id="Fill-6" fill="#EF7733" mask="url(#mask-24)"></path>
            <path d="M9.8722,17.4538 C7.0832,17.4538 4.8702,15.2408 4.8702,12.4518 C4.8702,9.6618 7.0832,7.4488 9.8722,7.4488 C12.6172,7.4488 14.8752,9.7068 14.8752,12.4518 C14.8752,15.2408 12.6172,17.4538 9.8722,17.4538 M9.8722,9.0428 C7.9692,9.0428 6.4632,10.5918 6.4632,12.4518 C6.4632,14.3108 8.0132,15.8598 9.8722,15.8598 C11.7762,15.8598 13.2812,14.3108 13.2812,12.4518 C13.2812,10.5918 11.7322,9.0428 9.8722,9.0428" id="Fill-7" fill="#EBEBEB" mask="url(#mask-24)"></path>
            <path d="M15.5832,16.1701 L13.5472,18.1621 C13.3252,18.3831 13.0162,18.3831 12.8382,18.1621 C12.6172,17.9411 12.6172,17.6311 12.8382,17.4541 L14.8752,15.4181 C15.0962,15.1961 15.4062,15.1961 15.5832,15.4181 C15.7602,15.6391 15.7602,15.9491 15.5832,16.1701" id="Fill-8" fill="#EBEBEB" mask="url(#mask-24)"></path>
        </g>
        <g id="Group-16" transform="translate(789.000000, 107.000000)">
            <g id="Group-3">
                <mask id="mask-26" fill="white">
                    <use xlink:href="#path-25"></use>
                </mask>
                <g id="Clip-2"></g>
                <path d="M21.1257,23.9999 L3.1117,23.9999 C1.3937,23.9999 -0.0003,22.6069 -0.0003,20.8879 L-0.0003,-0.0001 L19.1297,-0.0001 L19.1297,21.7649 C19.1297,22.0439 19.2497,22.3109 19.4587,22.4969 L21.1257,23.9999 Z" id="Fill-1" fill="#EDF6FF" mask="url(#mask-26)"></path>
            </g>
            <g id="Group-15" transform="translate(3.000000, 2.000000)">
                <polygon id="Fill-4" fill="#0D58AC" points="7.77 16.844 12.566 16.844 12.566 15.437 7.77 15.437"></polygon>
                <polygon id="Fill-6" fill="#0D58AC" points="7.77 19.7 12.566 19.7 12.566 18.293 7.77 18.293"></polygon>
                <polygon id="Fill-7" fill="#0D58AC" points="0.802 16.844 5.598 16.844 5.598 15.437 0.802 15.437"></polygon>
                <polygon id="Fill-8" fill="#0D58AC" points="7.77 14.029 12.566 14.029 12.566 12.622 7.77 12.622"></polygon>
                <polygon id="Fill-9" fill="#0D58AC" points="0.802 14.029 5.598 14.029 5.598 12.622 0.802 12.622"></polygon>
                <polygon id="Fill-10" fill="#0D58AC" points="0.802 19.7 5.598 19.7 5.598 18.293 0.802 18.293"></polygon>
                <path d="M18.154,21.9999 C17.036,21.9999 16.13,21.0939 16.13,19.9759 L16.13,6.8599 L20.178,6.8599 L20.178,19.9759 C20.178,21.0939 19.272,21.9999 18.154,21.9999" id="Fill-11" fill="#B6D9FD"></path>
                <path d="M2.6842,4.2543 L2.6842,10.1203 L10.6032,10.1203 L10.6032,4.0213 C10.6032,4.0213 8.7592,2.9473 6.6442,1.6943 C5.0962,2.7033 2.6842,4.2543 2.6842,4.2543" id="Fill-12" fill="#0D58AC"></path>
                <path d="M7.8376,10.12 L5.4556,10.12 L5.4556,7.778 C5.4556,7.111 6.0016,6.586 6.6476,6.586 C7.3136,6.586 7.8376,7.133 7.8376,7.778 L7.8376,10.12 Z" id="Fill-13" fill="#EF7733"></path>
                <path d="M11.3532,3.6605 L7.1312,0.6055 C6.8872,0.3615 6.4642,0.3615 6.2202,0.6055 L2.0172,3.6605 C1.7742,3.9045 1.7742,4.3275 2.0172,4.5715 C2.2612,4.8145 2.6842,4.8145 2.9282,4.5715 L6.6872,1.9785 L10.4462,4.5715 C10.7642,4.7895 11.1122,4.8145 11.3562,4.5715 C11.5932,4.3055 11.5932,3.9015 11.3532,3.6605" id="Fill-14" fill="#EF7733"></path>
            </g>
        </g>
        <g id="Group-17" transform="translate(862.000000, 106.000000)">
            <path d="M9.382,3.3651 L2.048,10.6981 L2.048,19.7521 L16.715,19.7521 L16.715,10.6981 C13.863,7.8461 12.278,6.2621 9.382,3.3651" id="Fill-1" fill="#0D58AC"></path>
            <g id="Group-5" transform="translate(0.000000, 0.965700)">
                <mask id="mask-28" fill="white">
                    <use xlink:href="#path-27"></use>
                </mask>
                <g id="Clip-4"></g>
                <path d="M18.4348,8.5557 L10.2878,0.4077 C9.7888,-0.0903 9.0198,-0.0903 8.5218,0.4077 L0.3728,8.5557 C-0.1252,9.0537 -0.1252,9.8237 0.3728,10.3217 C0.8718,10.8197 1.6408,10.8197 2.1388,10.3217 L9.3818,3.0787 L16.6238,10.3217 C17.1228,10.8197 17.8918,10.8197 18.3898,10.3217 C18.9328,9.8237 18.9328,9.0537 18.4348,8.5557" id="Fill-3" fill="#EF7733" mask="url(#mask-28)"></path>
            </g>
            <path d="M11.9172,19.7972 L6.9382,19.7972 L6.9382,15.6322 C6.9382,14.2752 8.0682,13.1432 9.4272,13.1432 C10.7852,13.1432 11.9172,14.2752 11.9172,15.6322 L11.9172,19.7972 Z" id="Fill-6" fill="#DEE9F6"></path>
            <g id="Group-10" transform="translate(11.000000, 11.965700)">
                <mask id="mask-30" fill="white">
                    <use xlink:href="#path-29"></use>
                </mask>
                <g id="Clip-9"></g>
                <path d="M6.8029,0.6743 C10.2059,0.6743 12.9649,3.4333 12.9649,6.8373 C12.9649,10.2403 10.2059,13.0003 6.8029,13.0003 C3.3989,13.0003 0.6399,10.2403 0.6399,6.8373 C0.6399,3.4333 3.3989,0.6743 6.8029,0.6743" id="Fill-8" fill="#EF7733" mask="url(#mask-30)"></path>
            </g>
            <path d="M17.8029,13.7787 C20.5769,13.7787 22.8259,16.0287 22.8259,18.8027 C22.8259,21.5767 20.5769,23.8267 17.8029,23.8267 C15.0289,23.8267 12.7799,21.5767 12.7799,18.8027 C12.7799,16.0287 15.0289,13.7787 17.8029,13.7787" id="Fill-11" fill="#FFFFFF"></path>
            <path d="M17.8029,13.7787 C20.5769,13.7787 22.8259,16.0287 22.8259,18.8027 C22.8259,21.5767 20.5769,23.8267 17.8029,23.8267 C15.0289,23.8267 12.7799,21.5767 12.7799,18.8027 C12.7799,16.0287 15.0289,13.7787 17.8029,13.7787" id="Fill-13" fill="#FFFFFF"></path>
            <path d="M17.3928,22.4213 L17.3928,21.8063 C16.6418,21.6703 15.9588,21.3293 15.3448,20.7823 L16.1638,19.7583 C16.6418,20.1683 17.0518,20.4413 17.3928,20.5093 L17.3928,19.2123 C16.7788,19.0753 16.3008,18.8713 16.0278,18.5983 C15.7548,18.3243 15.6188,17.9153 15.6188,17.4373 C15.6188,16.9593 15.7548,16.5493 16.0958,16.2083 C16.4378,15.8673 16.8468,15.6623 17.3928,15.5943 L17.3928,15.1843 L18.3488,15.1843 L18.3488,15.6623 C18.9628,15.7303 19.5098,16.0043 20.1238,16.4133 L19.3728,17.4373 C19.0318,17.1643 18.6908,17.0273 18.3488,16.8913 L18.3488,18.1883 C18.9628,18.3253 19.4418,18.5983 19.7828,18.8713 C20.0558,19.1443 20.2608,19.5533 20.2608,20.0313 C20.2608,20.5093 20.1238,20.9193 19.7828,21.2603 C19.4418,21.6023 18.9628,21.8063 18.4168,21.8753 L18.4168,22.4213 L17.3928,22.4213 Z M17.3928,16.8913 C17.1208,16.9593 16.9838,17.1643 16.9838,17.3693 C16.9838,17.5743 17.1208,17.7783 17.3928,17.9153 L17.3928,16.8913 Z M18.7588,20.0313 C18.7588,19.8953 18.7588,19.8273 18.6908,19.6903 C18.6218,19.6223 18.4858,19.5533 18.3488,19.4853 L18.3488,20.5783 C18.6218,20.5093 18.7588,20.3043 18.7588,20.0313 L18.7588,20.0313 Z" id="Fill-15" fill="#0D58AC"></path>
        </g>
        <g id="Group-10" transform="translate(935.000000, 105.000000)">
            <g id="Group-3" transform="translate(0.000000, 12.973000)">
                <mask id="mask-32" fill="white">
                    <use xlink:href="#path-31"></use>
                </mask>
                <g id="Clip-2"></g>
                <path d="M14.9315,0.3789 C14.0305,0.8349 13.0145,1.0969 11.9355,1.0969 C10.8695,1.0969 9.8665,0.8409 8.9735,0.3959 C3.8125,1.7329 -0.0005,6.4209 -0.0005,11.9999 L23.9735,11.9999 C23.9735,6.3959 20.1275,1.6909 14.9315,0.3789" id="Fill-1" fill="#0D58AC" mask="url(#mask-32)"></path>
            </g>
            <g id="Group-6" transform="translate(8.000000, 14.973000)">
                <mask id="mask-34" fill="white">
                    <use xlink:href="#path-33"></use>
                </mask>
                <g id="Clip-5"></g>
                <polygon id="Fill-4" fill="#EBEBEB" mask="url(#mask-34)" points="7.0916 0.6011 0.8256 0.6011 2.9146 3.7341 0.8256 10.0001 7.0916 10.0001 5.0026 3.7341"></polygon>
            </g>
            <g id="Group-9" transform="translate(5.000000, 0.973000)">
                <mask id="mask-36" fill="white">
                    <use xlink:href="#path-35"></use>
                </mask>
                <g id="Clip-8"></g>
                <path d="M6.9354,0.0269 C10.5764,0.0269 13.5264,2.9779 13.5264,6.6179 C13.5264,10.2579 10.5764,13.2089 6.9354,13.2089 C3.2954,13.2089 0.3444,10.2579 0.3444,6.6179 C0.3444,2.9779 3.2954,0.0269 6.9354,0.0269" id="Fill-7" fill="#EF7733" mask="url(#mask-36)"></path>
            </g>
        </g>
        <g id="Group-10" transform="translate(1008.000000, 107.000000)">
            <g id="Group-3">
                <mask id="mask-38" fill="white">
                    <use xlink:href="#path-37"></use>
                </mask>
                <g id="Clip-2"></g>
                <path d="M11.9997,-0.0001 C18.6277,-0.0001 23.9997,5.3729 23.9997,11.9999 C23.9997,18.6269 18.6277,23.9999 11.9997,23.9999 C5.3727,23.9999 -0.0003,18.6269 -0.0003,11.9999 C-0.0003,5.3729 5.3727,-0.0001 11.9997,-0.0001" id="Fill-1" fill="#DEE9F6" mask="url(#mask-38)"></path>
            </g>
            <path d="M16.0006,16.9994 L8.0006,16.9994 C7.4486,16.9994 7.0006,16.5514 7.0006,15.9994 C7.0006,15.4464 7.4476,14.9994 7.9996,14.9994 L15.9986,14.9994 C16.5516,14.9994 16.9996,15.4484 16.9996,16.0004 C16.9996,16.5524 16.5526,16.9994 16.0006,16.9994" id="Fill-4" fill="#155AA9"></path>
            <path d="M16.0006,13.0004 L8.0006,13.0004 C7.4486,13.0004 7.0006,12.5524 7.0006,12.0004 C7.0006,11.4484 7.4486,10.9994 8.0006,10.9994 L16.0006,10.9994 C16.5526,10.9994 17.0006,11.4484 17.0006,12.0004 C17.0006,12.5524 16.5526,13.0004 16.0006,13.0004" id="Fill-6" fill="#155AA9"></path>
            <path d="M16.0006,8.9999 L8.0006,8.9999 C7.4486,8.9999 7.0006,8.5519 7.0006,7.9999 C7.0006,7.4479 7.4486,6.9989 8.0006,6.9989 L16.0006,6.9989 C16.5526,6.9989 17.0006,7.4479 17.0006,7.9999 C17.0006,8.5519 16.5526,8.9999 16.0006,8.9999" id="Fill-8" fill="#155AA9"></path>
        </g>
        <g id="Group-12" transform="translate(34.000000, 181.000000)">
            <g id="Group-3">
                <mask id="mask-40" fill="white">
                    <use xlink:href="#path-39"></use>
                </mask>
                <g id="Clip-2"></g>
                <path d="M5.0002,-0.0001 L158.0002,-0.0001 C160.7612,-0.0001 163.0002,2.2389 163.0002,4.9999 L163.0002,54.9999 C163.0002,57.7619 160.7612,59.9999 158.0002,59.9999 L5.0002,59.9999 C2.2382,59.9999 0.0002,57.7619 0.0002,54.9999 L0.0002,4.9999 C0.0002,2.2389 2.2382,-0.0001 5.0002,-0.0001" id="Fill-1" fill="#0D58AC" mask="url(#mask-40)"></path>
            </g>
            <mask id="mask-42" fill="white">
                <use xlink:href="#path-41"></use>
            </mask>
            <g id="Clip-5"></g>
            <path d="M97.861,49.16 L99.185,49.16 L99.185,40.284 L97.861,40.284 L97.861,49.16 Z M109.57,43.479 L108.106,47.313 L108.037,47.313 L106.503,43.479 L105.109,43.479 L107.409,48.876 L106.085,51.858 L107.409,51.858 L110.964,43.479 L109.57,43.479 Z M101.206,47.385 C101.206,47.953 101.834,48.166 102.252,48.166 C102.949,48.166 103.646,47.598 103.785,46.745 C103.75,46.731 103.716,46.717 103.681,46.703 C103.378,46.576 103.102,46.461 102.6,46.461 C101.973,46.461 101.206,46.675 101.206,47.385 L101.206,47.385 Z M102.391,43.266 C101.415,43.266 100.44,43.692 100.091,44.616 L101.276,45.112 C101.555,44.616 101.973,44.474 102.461,44.474 C103.158,44.474 103.785,44.899 103.855,45.609 L103.855,45.681 C103.646,45.538 103.088,45.326 102.531,45.326 C101.276,45.326 100.022,46.036 100.022,47.313 C100.022,48.521 101.067,49.302 102.182,49.302 C103.088,49.302 103.506,48.876 103.855,48.45 L103.925,48.45 L103.925,49.16 L105.179,49.16 L105.179,45.751 C105.04,44.189 103.855,43.266 102.391,43.266 L102.391,43.266 Z M92.494,44.544 L94.376,44.544 C95.282,44.544 95.84,43.763 95.909,42.982 C95.909,42.343 95.352,41.491 94.376,41.491 L92.494,41.491 L92.494,44.544 Z M94.306,40.284 L91.17,40.284 L91.17,49.16 L92.494,49.16 L92.494,45.823 L94.306,45.823 C95.77,45.823 97.164,44.757 97.164,43.053 C97.164,41.349 95.77,40.284 94.306,40.284 L94.306,40.284 Z M75.628,46.32 C75.628,47.385 76.394,48.166 77.3,48.166 C78.206,48.166 78.903,47.385 78.903,46.32 C78.903,45.254 78.206,44.474 77.3,44.474 C76.394,44.474 75.628,45.254 75.628,46.32 L75.628,46.32 Z M78.834,43.976 C78.485,43.621 77.927,43.266 77.231,43.266 C75.767,43.266 74.373,44.616 74.373,46.32 C74.373,48.024 75.697,49.302 77.231,49.302 C77.927,49.302 78.485,48.947 78.764,48.592 L78.834,48.592 L78.834,49.018 C78.834,50.154 78.206,50.793 77.231,50.793 C76.464,50.793 75.906,50.225 75.767,49.728 L74.652,50.225 C75,51.006 75.837,52 77.3,52 C78.834,52 80.088,51.077 80.088,48.876 L80.088,43.479 L78.834,43.479 L78.834,43.976 Z M80.925,49.16 L82.249,49.16 L82.249,40.284 L80.925,40.284 L80.925,49.16 Z M84.2,46.248 C84.2,45.112 85.106,44.474 85.734,44.474 C86.221,44.474 86.709,44.757 86.849,45.112 L84.2,46.248 Z M85.734,43.337 C87.267,43.337 87.964,44.544 88.243,45.254 L88.382,45.609 L84.409,47.313 C84.758,47.953 85.176,48.237 85.873,48.237 C86.57,48.237 86.988,47.882 87.337,47.385 L88.312,48.095 C88.033,48.592 87.197,49.444 85.873,49.444 C84.2,49.444 82.945,48.095 82.945,46.391 C82.945,44.544 84.2,43.337 85.734,43.337 L85.734,43.337 Z M62.664,46.32 C62.664,47.385 63.43,48.166 64.337,48.166 C65.242,48.166 66.009,47.385 66.009,46.32 C66.009,45.183 65.242,44.474 64.337,44.474 C63.43,44.474 62.664,45.254 62.664,46.32 L62.664,46.32 Z M69.146,46.32 C69.146,47.385 69.912,48.166 70.818,48.166 C71.724,48.166 72.491,47.385 72.491,46.32 C72.491,45.183 71.724,44.474 70.818,44.474 C69.912,44.474 69.146,45.254 69.146,46.32 L69.146,46.32 Z M67.821,46.391 C67.821,44.616 69.146,43.337 70.818,43.337 C72.491,43.337 73.815,44.544 73.815,46.391 C73.815,48.166 72.491,49.444 70.818,49.444 C69.146,49.444 67.821,48.095 67.821,46.391 L67.821,46.391 Z M64.337,43.337 C62.664,43.337 61.34,44.616 61.34,46.391 C61.34,48.095 62.664,49.444 64.337,49.444 C66.009,49.444 67.333,48.166 67.333,46.391 C67.333,44.544 66.009,43.337 64.337,43.337 L64.337,43.337 Z M56.6,44.261 L56.6,45.538 L59.597,45.538 C59.528,46.248 59.249,46.817 58.9,47.172 C58.482,47.598 57.785,48.095 56.6,48.095 C54.718,48.095 53.324,46.603 53.324,44.686 C53.324,42.769 54.788,41.278 56.6,41.278 C57.576,41.278 58.342,41.704 58.9,42.201 L59.806,41.278 C59.039,40.568 58.064,40 56.67,40 C54.161,40 52,42.13 52,44.686 C52,47.243 54.161,49.373 56.67,49.373 C58.064,49.373 59.039,48.947 59.876,48.024 C60.712,47.172 60.991,45.965 60.991,45.041 C60.991,44.757 60.991,44.474 60.921,44.261 L56.6,44.261 Z" id="Fill-4" fill="#FFFFFF" mask="url(#mask-42)"></path>
            <path d="M91.5515,19.4579 L87.0125,16.8359 L82.3655,21.4829 L87.0115,26.1299 L91.5675,23.4999 C92.2775,23.0679 92.7005,22.3139 92.7005,21.4829 C92.7005,20.6519 92.2765,19.8979 91.5515,19.4579" id="Fill-6" fill="#FFCE00" mask="url(#mask-42)"></path>
            <g id="Group-9" mask="url(#mask-42)">
                <g transform="translate(69.000000, 8.000000)">
                    <mask id="mask-44" fill="white">
                        <use xlink:href="#path-43"></use>
                    </mask>
                    <g id="Clip-8" stroke="none" fill="none"></g>
                    <path d="M0,2.432 L0,24.495 C0,25.155 0.267,25.753 0.708,26.193 L13.365,13.483 L0.708,0.734 C0.267,1.175 0,1.772 0,2.432" id="Fill-7" stroke="none" fill="url(#linearGradient-45)" fill-rule="evenodd" mask="url(#mask-44)"></path>
                </g>
            </g>
            <path d="M82.3649,21.4828 L87.0119,16.8358 L87.0199,16.8288 L80.7929,13.2438 L72.5849,8.4198 C71.8459,7.9638 70.9499,7.9478 70.1949,8.3728 C70.0219,8.4828 69.8649,8.5928 69.7079,8.7338 L82.3649,21.4828 Z" id="Fill-10" fill="#00F076" mask="url(#mask-42)"></path>
            <path d="M69.7077,34.1927 C69.8647,34.3347 70.0217,34.4447 70.1947,34.5547 C70.5717,34.7587 70.9657,34.8687 71.3587,34.8687 C71.7827,34.8687 72.1917,34.7437 72.5697,34.5237 L80.7927,29.7227 L87.0197,26.1377 L87.0117,26.1297 L82.3647,21.4827 L69.7077,34.1927 Z" id="Fill-11" fill="#F63448" mask="url(#mask-42)"></path>
        </g>
        <g id="Group-24" transform="translate(271.000000, 181.000000)">
            <g id="Group-3">
                <mask id="mask-47" fill="white">
                    <use xlink:href="#path-46"></use>
                </mask>
                <g id="Clip-2"></g>
                <path d="M5.0002,-0.0001 L158.0002,-0.0001 C160.7612,-0.0001 163.0002,2.2389 163.0002,4.9999 L163.0002,54.9999 C163.0002,57.7619 160.7612,59.9999 158.0002,59.9999 L5.0002,59.9999 C2.2382,59.9999 0.0002,57.7619 0.0002,54.9999 L0.0002,4.9999 C0.0002,2.2389 2.2382,-0.0001 5.0002,-0.0001" id="Fill-1" fill="#0D58AC" mask="url(#mask-47)"></path>
            </g>
            <path d="M88.4064,22.7679 C88.4064,19.2929 91.1734,17.5559 91.3864,17.4469 C89.7904,15.0579 87.2364,14.7319 86.3844,14.7319 C84.2564,14.5149 82.2344,16.0359 81.1704,16.0359 C80.1054,16.0359 78.4034,14.7319 76.7004,14.8409 C74.4664,14.8409 72.3374,16.2529 71.1664,18.3159 C68.7194,22.5509 70.5284,28.8489 72.8694,32.3239 C74.0404,34.0609 75.4234,35.9069 77.1264,35.7979 C78.8284,35.6899 79.4674,34.7129 81.5954,34.7129 C83.6174,34.7129 84.2564,35.7979 86.0654,35.7979 C87.8744,35.7979 89.0454,34.0609 90.2154,32.4319 C91.5994,30.4769 92.1314,28.6319 92.1314,28.5229 C92.0244,28.3059 88.5124,26.8939 88.4064,22.7679" id="Fill-4" fill="#FFFFFF"></path>
            <path d="M85.0012,12.452 C85.9592,11.258 86.5972,9.629 86.3842,8 C85.0012,8.109 83.4052,8.977 82.3412,10.063 C81.4892,11.04 80.7452,12.778 80.9572,14.298 C82.5542,14.515 84.0432,13.646 85.0012,12.452" id="Fill-6" fill="#FFFFFF"></path>
            <path d="M59.1901,42.9183 L59.9211,45.2933 L57.5271,45.2933 L58.3251,42.9183 C58.5251,42.1713 58.6581,41.6283 58.7251,41.2213 C58.9911,42.1043 59.1241,42.6473 59.1901,42.9183 L59.1901,42.9183 Z M60.9191,49.0263 L62.4491,49.0263 L59.5891,40.0003 L57.8601,40.0003 L55.0001,49.0263 L56.4631,49.0263 L57.2611,46.3793 L60.1211,46.3793 L60.9191,49.0263 Z" id="Fill-8" fill="#FFFFFF"></path>
            <path d="M67.9699,44.2079 C68.2359,44.6149 68.3689,45.1579 68.3689,45.7689 C68.3689,46.4479 68.2359,46.9899 67.9699,47.4649 C67.6369,47.8729 67.2379,48.0759 66.7059,48.0759 C66.2409,48.0759 65.8419,47.9399 65.5749,47.6009 C65.3089,47.2619 65.1769,46.8539 65.1769,46.3789 L65.1769,45.2939 C65.1769,45.2259 65.1769,45.0899 65.2429,44.8869 C65.3089,44.4789 65.5089,44.2079 65.7749,43.9369 C66.0409,43.7329 66.3739,43.5969 66.7059,43.5969 C67.2379,43.5969 67.6369,43.8009 67.9699,44.2079 M68.9679,48.3479 C69.5659,47.6689 69.8319,46.7869 69.8319,45.7009 C69.8319,44.6829 69.5659,43.8689 69.0999,43.2579 C68.6349,42.6469 67.9699,42.3749 67.2379,42.3749 C66.3069,42.3749 65.5749,42.7829 65.1099,43.5289 L65.0429,42.5109 L63.7799,42.5109 C63.8459,43.2579 63.8459,44.0039 63.8459,44.6829 L63.8459,51.7409 L65.2429,51.7409 L65.2429,48.2799 C65.5749,48.8909 66.1739,49.2299 67.0389,49.2299 C67.7699,49.2299 68.4349,48.8909 68.9679,48.3479" id="Fill-10" fill="#FFFFFF"></path>
            <path d="M75.2858,44.2079 C75.5518,44.6149 75.6848,45.1579 75.6848,45.7689 C75.6848,46.4479 75.5518,46.9899 75.2858,47.4649 C74.9528,47.8729 74.5548,48.0759 74.0218,48.0759 C73.5568,48.0759 73.1578,47.9399 72.8908,47.6009 C72.6258,47.2619 72.4928,46.8539 72.4928,46.3789 L72.4928,45.2939 C72.4928,45.2259 72.4928,45.0899 72.5588,44.8869 C72.6258,44.4789 72.8248,44.2079 73.0908,43.9369 C73.3568,43.7329 73.6898,43.5969 74.0218,43.5969 C74.5548,43.5969 74.9528,43.8009 75.2858,44.2079 M76.2838,48.3479 C76.8818,47.6689 77.1478,46.7869 77.1478,45.7009 C77.1478,44.6829 76.8818,43.8689 76.4168,43.2579 C75.9508,42.6469 75.2858,42.3749 74.5548,42.3749 C73.6228,42.3749 72.8908,42.7829 72.4258,43.5289 L72.3598,42.5109 L71.0958,42.5109 C71.1618,43.2579 71.1618,44.0039 71.1618,44.6829 L71.1618,51.7409 L72.5588,51.7409 L72.5588,48.2799 C72.8908,48.8909 73.4898,49.2299 74.3548,49.2299 C75.0868,49.2299 75.7518,48.8909 76.2838,48.3479" id="Fill-12" fill="#FFFFFF"></path>
            <path d="M85.3293,46.5155 C85.3293,47.2615 85.0633,47.9405 84.5313,48.4155 C83.9323,48.9585 83.1343,49.2295 82.1363,49.2295 C81.2053,49.2295 80.4073,49.0265 79.8753,48.6865 L80.2073,47.4655 C80.8063,47.8725 81.5373,48.0765 82.2693,48.0765 C82.8013,48.0765 83.2013,47.9405 83.5333,47.7365 C83.7993,47.4655 83.9993,47.1935 83.9993,46.7195 C83.9993,46.3795 83.8663,46.0405 83.6003,45.7685 C83.3333,45.4975 82.9343,45.2935 82.4023,45.0905 C80.8723,44.4795 80.0753,43.6645 80.0753,42.5115 C80.0753,41.7645 80.3413,41.1535 80.8723,40.6785 C81.4053,40.2035 82.1363,39.9995 83.0673,39.9995 C83.8663,39.9995 84.5313,40.1355 85.0633,40.4075 L84.6643,41.4935 C84.1323,41.2215 83.6003,41.0855 83.0013,41.0855 C82.4693,41.0855 82.1363,41.2215 81.8043,41.4935 C81.5373,41.6965 81.4713,41.9685 81.4713,42.3075 C81.4713,42.6465 81.6043,42.9865 81.8713,43.1895 C82.1363,43.3935 82.5363,43.6645 83.1343,43.8685 C83.8663,44.2075 84.4643,44.5475 84.7973,44.9545 C85.1963,45.3615 85.3293,45.9045 85.3293,46.5155" id="Fill-14" fill="#FFFFFF"></path>
            <path d="M90.0515,43.597 L88.5215,43.597 L88.5215,46.786 C88.5215,47.601 88.7875,48.008 89.3205,48.008 C89.5865,48.008 89.7855,48.008 89.9185,47.94 L89.9855,49.026 C89.7185,49.162 89.3205,49.162 88.8545,49.162 C88.3225,49.162 87.8565,48.958 87.5245,48.619 C87.1915,48.28 87.0585,47.669 87.0585,46.854 L87.0585,43.597 L86.1275,43.597 L86.1275,42.511 L87.0585,42.511 L87.0585,41.289 L88.4555,40.882 L88.4555,42.511 L89.9855,42.511 C90.0515,42.511 90.0515,43.597 90.0515,43.597" id="Fill-16" fill="#FFFFFF"></path>
            <path d="M95.2395,44.2079 C95.5055,44.6829 95.6385,45.1579 95.6385,45.7689 C95.6385,46.3789 95.5055,46.8539 95.1735,47.2619 C94.9065,47.8049 94.4415,48.0759 93.9095,48.0759 C93.3775,48.0759 92.9785,47.8729 92.6455,47.3299 C92.3795,46.8539 92.2465,46.3789 92.2465,45.7689 C92.2465,45.1579 92.3795,44.6149 92.6455,44.2079 C92.9785,43.7329 93.3775,43.4609 93.9755,43.4609 C94.5085,43.4609 94.9735,43.6649 95.2395,44.2079 M96.2375,48.1439 C96.8355,47.5329 97.1015,46.7189 97.1015,45.7009 C97.1015,44.7509 96.8355,43.9369 96.2375,43.3259 C95.6385,42.7149 94.9065,42.3749 93.9755,42.3749 C92.9785,42.3749 92.2465,42.7149 91.6475,43.3259 C91.0495,44.0039 90.7835,44.8189 90.7835,45.8369 C90.7835,46.7869 91.0495,47.6009 91.6475,48.2119 C92.2465,48.8229 92.9785,49.1619 93.9095,49.1619 C94.8405,49.1619 95.6385,48.8229 96.2375,48.1439" id="Fill-18" fill="#FFFFFF"></path>
            <path d="M101.6911,43.8007 C101.5581,43.8007 101.4251,43.7327 101.2261,43.7327 C100.6931,43.7327 100.3611,43.9367 100.0951,44.3437 C99.8291,44.6827 99.7621,45.0907 99.7621,45.6337 L99.7621,49.0267 L98.3651,49.0267 L98.3651,44.5477 C98.3651,43.8007 98.3651,43.1217 98.2991,42.5107 L99.5631,42.5107 L99.6291,43.7327 L99.6961,43.7327 C99.8291,43.3257 100.0951,42.9867 100.4271,42.7147 C100.7601,42.5107 101.0931,42.3757 101.4251,42.3757 L101.7581,42.3757 C101.6911,42.3757 101.6911,43.8007 101.6911,43.8007" id="Fill-20" fill="#FFFFFF"></path>
            <path d="M106.4128,44.0043 C106.6128,44.2753 106.6788,44.6833 106.6788,45.0903 L103.7528,45.1583 C103.7528,44.6833 103.8858,44.3433 104.1518,44.0043 C104.4178,43.5973 104.8168,43.3933 105.2828,43.3933 C105.8148,43.3933 106.1468,43.5973 106.4128,44.0043 L106.4128,44.0043 Z M108.0098,46.1753 C108.0758,45.9723 108.0758,45.7693 108.0758,45.4973 C108.0758,44.6833 107.8768,43.9363 107.4778,43.5293 C107.0118,42.8503 106.3468,42.5113 105.4158,42.5113 C104.4178,42.5113 103.6858,42.8503 103.1538,43.5293 C102.6218,44.1403 102.3558,45.0223 102.3558,45.9723 C102.3558,46.9903 102.6888,47.7363 103.2208,48.3473 C103.7528,48.9583 104.5508,49.2303 105.5488,49.2303 C106.3468,49.2303 107.0788,49.0943 107.6768,48.8223 L107.4778,47.8043 C106.9448,48.0083 106.3468,48.1443 105.7478,48.1443 C105.1498,48.1443 104.6838,47.9403 104.3518,47.6693 C103.9518,47.3293 103.7528,46.7863 103.7528,46.1753 L108.0098,46.1753 Z" id="Fill-22" fill="#FFFFFF"></path>
        </g>
    </g>
</svg>