<svg xmlns="http://www.w3.org/2000/svg" xmlns:xlink="http://www.w3.org/1999/xlink" viewBox="0 0 144 40" xmlns:v="https://vecta.io/nano"><g opacity=".24"><radialGradient id="A" cx="-1088.205" cy="83.319" r="2.358" gradientTransform="matrix(21.4701 -0.1441 3.859756e-03 0.5442 23432.8086 -172.1935)" gradientUnits="userSpaceOnUse"><stop offset="0" stop-color="#002346"/><stop offset=".1" stop-color="#05284a" stop-opacity=".9"/><stop offset=".225" stop-color="#153555" stop-opacity=".775"/><stop offset=".363" stop-color="#2e4a67" stop-opacity=".638"/><stop offset=".51" stop-color="#516980" stop-opacity=".5"/><stop offset=".664" stop-color="#7f90a0" stop-opacity=".336"/><stop offset=".825" stop-color="#b7c0c7" stop-opacity=".175"/><stop offset=".988" stop-color="#f7f7f5" stop-opacity=".012"/><stop offset="1" stop-color="#fcfbf8" stop-opacity="0"/></radialGradient><path d="M119.92 29.62c0 .7-22.67 1.44-50.65 1.62-27.97.18-50.66-.23-50.66-.94s22.67-1.44 50.63-1.62c28-.2 50.66.23 50.68.94z" fill="url(#A)"/></g><path d="M63.33 8.68c5.58.06 10.24 4.14 11.05 9.6.38 2.6-.4 4.9-1.52 7.14-2.2 4.46-5.15 8.42-8.26 12.26-.3.36-.6.7-.9 1.08-.26.32-.52.38-.8.03-3.93-4.63-7.7-9.4-9.98-15.12-2.63-6.58 1.76-13.58 8.4-14.78.67-.13 1.35-.15 2.03-.22m-8.56 10.7c-.1 4.3 3.34 8.6 8.52 8.6a8.48 8.48 0 0 0 8.57-8.51c.01-4.94-3.94-8.53-8.5-8.58-4.73-.02-8.58 3.8-8.6 8.5" fill="#f17423"/><path d="M39.8 21.85v7.9c.01.55-.26.8-.77.85-.03 0-.1.01-.13.01-2 .2-2.2.06-2.2-1.93V11.1c0-1.04.15-1.2 1.18-1.2l6.43.1c.98.05 1.98.3 2.9.66 2.4.93 3 3.23 2.76 5.45-.2 1.9-1.3 3.14-2.98 3.93-.13.06-.25.14-.45.25 1.7.93 2.17 2.6 2.8 4.16l2.07 5.15c.32.83.23.98-.65 1.06-.03 0-.1.01-.13.01-1.96.15-2.08.08-2.8-1.74l-1.77-4.45c-.8-1.97-1.75-2.6-3.86-2.6l-2.42-.02m2.25-9.28v.05c-.6 0-1.16.01-1.75-.01-.34-.01-.48.1-.48.47v5.6c0 .15.18.44.3.44 1.45-.01 2.93.1 4.35-.16 1.54-.28 2.5-1.88 2.4-3.48-.1-1.48-1-2.46-2.66-2.74-.7-.14-1.45-.12-2.17-.18m60.84.1l-.85-.05c-2.92 0-5.83 0-8.74-.01-.92 0-1-.1-1.04-1.06-.03-1.82.22-1.56 1.54-1.56l12 .01c.4 0 .85-.1 1.04.42.23.63.65 1.24.15 1.93l-4.2 5.8-6.72 9.23c-.13.17-.25.36-.44.65l.84.03 9.67.01c.8 0 .9.1 1.02.9.02.16.02.33.02.5-.02 1.07-.16 1.2-1.23 1.2-4.38 0-8.8-.01-13.18-.01-.42 0-.92.14-1.1-.44-.23-.65-.63-1.25-.1-1.98l4.22-5.8 6.72-9.2c.1-.13.2-.3.4-.57M23.95 22.1v7.58c.01.56-.24.84-.78.9-2.08.3-2.33.08-2.33-1.98l.01-17.48c.01-1.1.15-1.25 1.28-1.25l6.37.03c1.18.01 2.3.33 3.37.84 1.4.63 2.2 1.7 2.53 3.2.28 1.3.32 2.56.02 3.83-.45 1.92-1.68 3.2-3.52 3.82-.92.3-1.94.44-2.93.5-1.32.1-2.63.02-4.02.02m.02-2.67l4.44-.01c1.73-.1 2.7-1.06 2.92-2.77.26-2.13-.45-3.62-2.7-3.9-1.5-.18-3.03-.08-4.54-.1-.02 0-.06.05-.1.1l-.01 6.68zm55.7 2.7l-.06.85-.01 6.6c0 .86-.13 1-1 1.06-1.9.16-2.1-.01-2.1-1.88l.01-17.46c0-1.23.16-1.4 1.4-1.4l6.24.05c1.43.01 2.74.42 3.97 1.15 1.3.76 1.9 1.98 2.04 3.4.1.95.13 1.96 0 2.9-.3 2.14-1.6 3.54-3.6 4.22-.9.3-1.9.42-2.86.48-1.32.08-2.65.03-4.03.03m2.25-2.6h1.68c2.13-.08 3.28-1.05 3.44-3.14.17-2.2-.62-3.46-2.8-3.73-1.4-.17-2.82-.1-4.22-.13-.4-.01-.4.26-.4.55l-.01 5.9c0 .42.2.54.58.53h1.73m35.24-2.05l.83-1.22 3.6-5.53c.3-.47.7-.7 1.23-.7l1.18.01c.33.05.74.13.93.34.1.13-.1.6-.28.86l-5.7 8.7a2.01 2.01 0 0 0-.3.98l-.02 8.67c0 .84-.23 1.07-1.07 1.08-2.44.06-2.02-.17-2.04-1.98l-.01-7.68a2.49 2.49 0 0 0-.39-1.28l-5.65-8.6c-.15-.24-.3-.63-.2-.83s.53-.3.8-.3c2.15-.14 2.15-.14 3.3 1.64l3.27 5.1c.14.24.3.43.5.76" fill="#155aa9"/><g fill="#fff"><path d="M74.45 2.9c0 .14-.12.28-.28.28-.14 0-.28-.12-.28-.28 0-.14.12-.28.28-.28a.28.28 0 0 1 .28.28z"/><use xlink:href="#C"/><circle cx="87.09" cy="30.59" r=".28"/><path d="M121.93 39.84c0 .14-.12.28-.28.28-.14 0-.28-.12-.28-.28 0-.14.12-.28.28-.28.14.02.28.14.28.28zm-18.8-49.9c0 .14-.12.28-.28.28-.14 0-.28-.12-.28-.28 0-.14.12-.28.28-.28.16.02.28.14.28.28z"/><use xlink:href="#C" x="35.99" y="4.69"/><path d="M116.75-2.7c0 .14-.12.28-.28.28-.14 0-.28-.12-.28-.28 0-.14.12-.28.28-.28.16.02.28.14.28.28z"/><use xlink:href="#D"/><circle cx="84.63" cy="-9.93" r=".28"/><path d="M101.5 15.1c0 .14-.12.28-.28.28-.14 0-.28-.12-.28-.28 0-.14.12-.28.28-.28s.28.1.28.28z"/><circle cx="63.92" cy="-10.82" r=".28"/><use xlink:href="#E"/><use xlink:href="#F"/><use xlink:href="#F" x="-5" y="15.11"/><use xlink:href="#E" x="14.46" y="4.88"/><use xlink:href="#F" x="-12.96" y="31.04"/><use xlink:href="#G"/><use xlink:href="#G" x="-4.15" y="8.83"/><use xlink:href="#G" x="21.23" y="-3.87"/><use xlink:href="#G" x="-6.03" y="-15.05"/><use xlink:href="#F" x="-32.14" y="11.37"/><use xlink:href="#F" x="-47.6" y="-5.46"/><use xlink:href="#F" x="-52.2" y="6.47"/><path d="M45.33 2.9c0 .1-.07.16-.16.16S45 3 45 2.9s.07-.16.16-.16.17.07.17.16z"/><use xlink:href="#G" x="-9.18" y="1.78"/><use xlink:href="#G" x="-7.57" y="7.15"/><use xlink:href="#G" x="-11.7" y="5.85"/><use xlink:href="#H"/><use xlink:href="#H" x="-13.94" y="-2.57"/><use xlink:href="#H" x="-6.56" y="40.93"/><circle cx="110.72" cy="19.15" r=".28"/><use xlink:href="#E" x="28.56" y="22.09"/><use xlink:href="#F" x="30.36" y="-8.46"/><use xlink:href="#F" x="5.14" y="31.76"/><use xlink:href="#E" x="26.3" y="15.14"/><path d="M110.3 8.36c0 .1-.07.16-.16.16s-.16-.07-.16-.16.07-.16.16-.16.16.06.16.16z"/><use xlink:href="#E" x="24.48" y="13.61"/><use xlink:href="#G" x="52.35" y="-18.25"/><use xlink:href="#E" x="1.82" y="-4.3"/><use xlink:href="#F" x="7.5" y="5.47"/><use xlink:href="#G" x="51.95" y="1.78"/><use xlink:href="#G" x="53.55" y="7.15"/><use xlink:href="#G" x="48.18" y="9.18"/><circle cx="11.37" cy="27.76" r=".28"/><path d="M11.88 52.08c0 .14-.12.28-.28.28-.14 0-.28-.12-.28-.28 0-.14.12-.28.28-.28s.28.1.28.28z"/><use xlink:href="#D" x="-5.67" y="28.29"/><path d="M22.32 27.46c0 .14-.12.28-.28.28-.14 0-.28-.12-.28-.28s.12-.28.28-.28c.17.02.28.14.28.28z"/><use xlink:href="#D" x="-44.15" y="-6.47"/><use xlink:href="#C" x="-59.72" y="-19.15"/><circle cx="19.68" cy="11.46" r=".28"/><path d="M20.3-4.5c0 .14-.12.28-.28.28s-.28-.12-.28-.28c0-.14.12-.28.28-.28s.28.14.28.28z"/><use xlink:href="#G" x="-43.98" y="-0.02"/><use xlink:href="#E" x="-55.4" y="4.88"/><use xlink:href="#F" x="-77.77" y="12.04"/><use xlink:href="#G" x="-39.87" y="1.35"/><circle cx="72.77" cy="26.15" r=".28"/><use xlink:href="#H" x="-85.7" y="8.99"/><use xlink:href="#E" x="-43.58" y="15.14"/><use xlink:href="#G" x="1.33" y="-10.58"/><path d="M39.56 1.16c0 .1-.07.16-.16.16s-.16-.07-.16-.16c-.01-.1.06-.16.16-.16.1.02.16.1.16.16z"/><use xlink:href="#F" x="-62.38" y="5.47"/><use xlink:href="#G" x="-17.95" y="1.78"/><use xlink:href="#G" x="-16.3" y="7.15"/><use xlink:href="#G" x="-21.67" y="9.18"/><path d="M55.26-6.7c0 .1-.07.16-.16.16s-.16-.07-.16-.16.06-.16.15-.16.17.07.17.16zm53.47 29.28c-.03.02-.07.06-.1.08l-.4.3a.22.22 0 0 0-.06.05c-.03.03-.03.1.01.1.02.02.06.02.08.03.02 0 .05.01.08.01.01 0 .02.01.02.02l-.02.23-.03.32c-.01.1.06.14.13.15l.4.03c.01 0 .02 0 .02-.01l.05-.52a1.82 1.82 0 0 1 .33.01l-.05.54c0 .01 0 .02.01.02l.4.03c.07.01.13-.03.14-.1v-.03l.06-.55c0-.02 0-.02.02-.02.03 0 .07.01.1 0 .01 0 .03-.01.05-.02.03-.02.05-.06.02-.1-.01-.01-.02-.03-.03-.05l-.6-.63c-.03-.03-.06-.07-.1-.1-.02-.02-.06-.03-.1-.05-.06-.01-.1 0-.17.03-.03.02-.06.03-.1.06l.03.03a.95.95 0 0 1 .15.2c0 .01.01.01.02.01.1.02.15.1.13.2-.01.06-.07.1-.14.13-.1.02-.2-.05-.2-.14v-.06c-.05-.1-.1-.16-.17-.22 0-.01-.01-.02-.02-.02z"/><path d="M108.98 23l-.05-.1c.03-.02.06-.06.07-.1.02-.14-.08-.34-.18-.48-.14-.2-.33-.4-.6-.44-.08-.01-.14.01-.17.06-.03.06-.02.15.02.26l-.08.05c-.07-.14-.08-.28-.02-.36.03-.05.1-.1.25-.1.32.02.54.3.68.47.03.06.23.34.2.56-.01.07-.05.13-.1.17V23z"/></g><g fill="#227857"><path d="M54.35 28.86H50.8l1.78-2.6 1.78-2.62 1.8 2.62 1.78 2.6z"/><path d="M54.35 32.62H49.3l2.52-3.7 2.53-3.7 5.06 7.42z"/><path d="M54.35 37.23h-6.58l6.58-9.65 3.3 4.83 3.3 4.82z"/></g><g fill="#fff"><path d="M56.2 32.38l-.24.18-.9.7c-.04.03-.1.06-.12.1-.1.1-.07.2.03.28.06.04.12.06.2.07l.17.02c.03 0 .04.01.04.05l-.05.52-.07.74c-.02.2.13.33.28.34l.92.1c.03 0 .04-.01.04-.04l.1-1.2v-.04l.76.07v.04l-.12 1.18c0 .03 0 .04.04.05l.9.1c.16.01.3-.07.33-.2.01-.02.01-.05.01-.07l.12-1.26c0-.05 0-.05.05-.04.08.01.17.02.26 0a.3.3 0 0 0 .1-.04c.07-.04.1-.12.06-.2a.36.36 0 0 0-.07-.1l-1.38-1.44-.2-.23c-.06-.06-.13-.1-.2-.1-.14-.03-.28-.01-.4.07l-.2.12.08.08c.13.13.24.28.35.44.01.02.03.03.05.03.2.04.34.24.3.44-.02.13-.14.26-.3.28a.41.41 0 0 1-.48-.33c-.01-.04 0-.08 0-.12 0-.02 0-.04-.01-.06-.1-.17-.24-.32-.4-.46-.02-.01-.04-.02-.05-.05.01.02 0 .02 0 0z"/><path d="M56.77 33.38l-.1-.2a.36.36 0 0 0 .16-.24c.06-.32-.18-.8-.4-1.1-.32-.44-.76-.94-1.4-1-.2-.01-.33.03-.4.12-.08.12-.06.35.06.6l-.2.1c-.16-.33-.17-.63-.05-.82.07-.1.24-.24.6-.2.74.05 1.25.65 1.57 1.1.1.12.53.78.45 1.28-.03.16-.1.3-.26.4h0c-.01 0-.02.01-.03.01z"/></g><g fill="#227857"><path d="M107.04 19.93h-2.87l1.43-2.1 1.44-2.1 2.86 4.2z"/><path d="M107.04 22.94h-4.06l2.03-2.97 2.03-2.98 2.02 2.98 2.03 2.97z"/><path d="M107.04 26.65h-5.3l5.3-7.75 2.64 3.87 2.64 3.88z"/></g><g fill="#fff"><path d="M108.5 22.76l-.2.15-.72.55a.7.7 0 0 0-.1.08c-.07.07-.06.16.02.22a.44.44 0 0 0 .16.06c.05.01.1.01.14.02.02 0 .03.01.03.04l-.04.42-.06.6c-.02.16.1.26.22.27l.74.07c.02 0 .03-.01.03-.03l.1-.95v-.03l.6.06v.03l-.1.95c0 .02 0 .03.03.04l.73.07c.12.01.23-.06.26-.16.01-.02.01-.04.01-.06l.1-1c0-.04 0-.04.04-.03.07.01.14.02.2 0l.08-.03c.06-.03.08-.1.05-.16-.02-.03-.03-.06-.06-.08l-1.1-1.15-.17-.18c-.05-.05-.1-.07-.17-.08-.1-.02-.22-.01-.32.06-.06.03-.1.07-.17.1l.07.07a1.87 1.87 0 0 1 .28.35c.01.02.02.02.04.02a.32.32 0 0 1 .25.35c-.02.1-.1.2-.25.22-.18.03-.35-.1-.4-.26-.01-.03 0-.07 0-.1 0-.02 0-.03-.01-.05-.08-.14-.2-.26-.3-.37l-.03-.03c.03-.03.02-.03.02-.03z"/><path d="M108.97 23.55l-.07-.16a.31.31 0 0 0 .13-.2c.05-.26-.15-.64-.33-.9-.26-.35-.6-.76-1.13-.8-.16-.01-.26.02-.3.1-.07.1-.05.28.05.48l-.16.07c-.13-.26-.14-.5-.04-.66.06-.1.2-.2.48-.17.6.04 1 .52 1.26.87.07.1.43.62.36 1.03a.44.44 0 0 1-.2.31h0c-.02.02-.03.02-.04.02z"/></g><path d="M60.22 8.12c1.46-1.8 5.53-5 10.72-3.06a13.34 13.34 0 0 1 7.86 7.9c-.4-.23-.92-.27-1.4-.1-.25.1-.47.24-.66.43-.28-.72-.8-1.43-1.62-.6-.72.72-1.04 1.78-1.17 2.63-2.44-2.87-10.92-7.7-13.73-7.18z" fill="#e2233b"/><path d="M69.72 16.65c-.87-.68-1.96-1.46-3.52-2.33-1.77-1-3.45-1.63-4.82-2.1-1.72-.57-2.97-.85-3.36-1.15-.68-.56.27-2.62 1.8-3.05l.16-.04c2.8-.52 11.3 4.3 13.73 7.18.17.2.32.4.42.58.47.8.07 3.2-.74 3.28-.07.01-.14 0-.22-.03-1.26-.5-2.1-1.3-3.44-2.35zm7.68-3.8c.48-.17 1-.13 1.4.1.2.1.37.26.5.45.4.54.5 1.3.22 1.92-.56 1.2-2.1 1.27-2.96.34-.65-.7-.45-1.76.18-2.4.18-.2.4-.34.65-.43z" fill="#f1f2f2"/><defs ><path id="C" d="M88.58 22.23c0 .14-.12.28-.28.28-.14 0-.28-.12-.28-.28 0-.14.12-.28.28-.28.14 0 .28.12.28.28z"/><path id="D" d="M74.3 20.24c0 .14-.12.28-.28.28-.14 0-.28-.12-.28-.28 0-.14.12-.28.28-.28s.28.14.28.28z"/><path id="E" d="M83.28 3.06c0 .1-.07.16-.16.16s-.16-.07-.16-.16.07-.16.16-.16c.1-.01.16.06.16.16z"/><path id="F" d="M94 .46c0 .1-.07.16-.16.16s-.16-.07-.16-.16.07-.16.16-.16c.1.02.16.1.16.16z"/><path id="G" d="M56.05 21.15c0 .1-.07.16-.16.16s-.16-.07-.16-.16.07-.16.16-.16.16.07.16.16z"/><path id="H" d="M119.9 14.17c0 .14-.12.28-.28.28-.14 0-.28-.12-.28-.28 0-.14.12-.28.28-.28s.28.12.28.28z"/></defs></svg>