<svg width="119" height="39" xmlns="http://www.w3.org/2000/svg"><g fill="none" fill-rule="evenodd"><rect fill="#343434" width="118.541" height="38.949" rx="3.84"/><g fill="#FFF"><path d="M11.255 6.774c-1.072 0-1.941.95-1.941 2.126v21.996c0 1.174.868 2.126 1.94 2.126h9.666c1.072 0 1.941-.95 1.941-2.126V8.9c0-1.174-.868-2.126-1.94-2.126h-9.666zm-.671 3.442V29.58h11.007V10.216H10.584zm5.504 21.945a.854.854 0 0 0 .846-.86c0-.475-.379-.86-.846-.86a.854.854 0 0 0-.847.86c0 .475.379.86.847.86zM14.394 8.495c0 .238.146.43.337.43h2.713c.186 0 .337-.2.337-.43 0-.238-.145-.43-.337-.43h-2.713c-.186 0-.337.2-.337.43z"/><path d="M30.804 15.62l.71-2.154h2.43l.73 2.154h.946l-2.337-6.848h-1.067l-2.327 6.848h.915zm2.956-2.844h-2.062l.67-1.982c.133-.416.244-.833.346-1.24h.02c.102.397.203.803.356 1.25l.67 1.972zm4.938 2.844l1.931-4.917h-.935l-.955 2.763c-.162.447-.305.854-.416 1.26h-.03a12.647 12.647 0 0 0-.397-1.26l-.965-2.763h-.956l1.87 4.917h.853zm4.055.112c.7 0 1.229-.345 1.503-.731h.03l.072.62h.813a6.924 6.924 0 0 1-.081-1.18v-1.838c0-.986-.366-2.012-1.87-2.012-.62 0-1.21.173-1.616.437l.204.59a2.45 2.45 0 0 1 1.28-.367c1.006 0 1.118.732 1.118 1.138v.102c-1.9-.01-2.957.64-2.957 1.829 0 .711.508 1.412 1.504 1.412zm.233-.66c-.457 0-.843-.275-.843-.854 0-.955 1.107-1.128 2.083-1.107v.853c0 .092-.02.193-.05.285a1.224 1.224 0 0 1-1.19.823zm4.176-5.202c.356 0 .58-.244.57-.55 0-.314-.214-.558-.55-.558a.545.545 0 0 0-.558.559c0 .305.223.549.538.549zm.468 5.75v-4.917h-.894v4.917h.894zm2.58 0V8.406h-.894v7.214h.894zm2.825.112c.701 0 1.23-.345 1.504-.731h.03l.072.62h.812a6.924 6.924 0 0 1-.08-1.18v-1.838c0-.986-.367-2.012-1.87-2.012-.62 0-1.21.173-1.616.437l.203.59a2.45 2.45 0 0 1 1.28-.367c1.006 0 1.118.732 1.118 1.138v.102c-1.9-.01-2.957.64-2.957 1.829 0 .711.508 1.412 1.504 1.412zm.234-.66c-.457 0-.843-.275-.843-.854 0-.955 1.107-1.128 2.082-1.107v.853c0 .092-.02.193-.05.285a1.224 1.224 0 0 1-1.19.823zm6.198.66c1.097 0 2.205-.874 2.205-2.631.01-1.494-.854-2.51-2.073-2.51-.793 0-1.362.356-1.677.904h-.02V8.406h-.884v5.944c0 .437-.02.935-.04 1.27h.772l.04-.812h.03c.367.65.936.924 1.647.924zm-.183-.711c-.65 0-1.169-.427-1.341-1.047a1.674 1.674 0 0 1-.04-.325v-.884c0-.142.03-.264.05-.365.183-.681.752-1.098 1.361-1.098.956 0 1.464.844 1.464 1.83 0 1.127-.56 1.889-1.494 1.889zm4.613.6V8.405h-.894v7.214h.894zm3.77.101c.782 0 1.32-.162 1.635-.305l-.152-.64c-.335.142-.721.254-1.362.254-.894 0-1.666-.498-1.686-1.707h3.454c.01-.091.03-.234.03-.416 0-.905-.426-2.317-2.031-2.317-1.433 0-2.307 1.168-2.307 2.652 0 1.483.905 2.48 2.418 2.48zm1.056-3.038h-2.611c.071-.62.467-1.453 1.372-1.453 1.005 0 1.25.884 1.24 1.453zm6.533 3.048c1.19 0 2.45-.792 2.45-2.611 0-1.504-.956-2.53-2.368-2.53-1.362 0-2.439.965-2.439 2.611 0 1.555 1.026 2.53 2.357 2.53zm.041-.67c-.874 0-1.493-.813-1.493-1.89 0-.935.457-1.91 1.513-1.91 1.057 0 1.474 1.056 1.474 1.89 0 1.107-.64 1.91-1.494 1.91zm4.633.558v-2.956c0-.153.02-.305.061-.417.153-.498.61-.914 1.2-.914.843 0 1.137.66 1.137 1.453v2.834h.894v-2.936c0-1.687-1.056-2.093-1.737-2.093-.813 0-1.382.457-1.626.925h-.02l-.05-.813h-.793c.03.406.04.823.04 1.33v3.587h.894zm8.82.102c.345 0 .62-.05.792-.122l-.04-.67c-.112.03-.285.06-.519.06-.497 0-.67-.345-.67-.955v-2.652h1.28v-.68h-1.28V9.29l-.874.234v1.179h-.762v.68h.762v2.683c0 .58.092 1.016.346 1.28.213.244.548.376.965.376zm2.946-.102v-2.966c0-.173.01-.305.061-.427.163-.488.62-.894 1.2-.894.843 0 1.137.67 1.137 1.463v2.824h.894v-2.926c0-1.697-1.056-2.103-1.717-2.103-.335 0-.65.102-.914.254a1.66 1.66 0 0 0-.64.63h-.02V8.406h-.895v7.214h.894zm7.011.102c.783 0 1.321-.162 1.636-.305l-.152-.64c-.336.142-.722.254-1.362.254-.894 0-1.666-.498-1.687-1.707h3.455c.01-.091.03-.234.03-.416 0-.905-.426-2.317-2.032-2.317-1.432 0-2.306 1.168-2.306 2.652 0 1.483.904 2.48 2.418 2.48zm1.057-3.038h-2.611c.07-.62.467-1.453 1.371-1.453 1.006 0 1.25.884 1.24 1.453zM31.863 31.934l1.356-4.106h4.63l1.394 4.106h1.801L36.59 18.88h-2.034L30.12 31.934h1.744zm5.636-5.423h-3.932l1.279-3.777c.252-.795.465-1.589.658-2.363h.04c.193.755.386 1.53.677 2.382l1.278 3.758zm6.346 9.259v-5.095h.039c.561.93 1.646 1.472 2.886 1.472 2.208 0 4.261-1.665 4.261-5.036 0-2.847-1.704-4.765-3.97-4.765-1.53 0-2.635.678-3.332 1.821h-.04l-.077-1.608h-1.53c.039.891.078 1.86.078 3.06v10.15h1.685zm2.634-4.96c-1.22 0-2.247-.813-2.557-1.994a3.838 3.838 0 0 1-.077-.697V26.51c0-.233.058-.484.116-.698.33-1.278 1.414-2.11 2.576-2.11 1.802 0 2.79 1.607 2.79 3.486 0 2.15-1.046 3.622-2.848 3.622zm7.702 4.96v-5.095h.038c.562.93 1.647 1.472 2.886 1.472 2.209 0 4.262-1.665 4.262-5.036 0-2.847-1.705-4.765-3.971-4.765-1.53 0-2.634.678-3.332 1.821h-.038l-.078-1.608h-1.53c.039.891.077 1.86.077 3.06v10.15h1.686zm2.634-4.96c-1.22 0-2.247-.813-2.557-1.994a3.838 3.838 0 0 1-.077-.697V26.51c0-.233.058-.484.116-.698.33-1.278 1.414-2.11 2.576-2.11 1.801 0 2.79 1.607 2.79 3.486 0 2.15-1.047 3.622-2.848 3.622zm12.168 1.318c3.08 0 4.571-1.743 4.571-3.758 0-1.917-1.123-2.983-3.331-3.835-1.802-.697-2.596-1.298-2.596-2.518 0-.891.678-1.956 2.46-1.956a5.2 5.2 0 0 1 2.48.62l.464-1.376c-.58-.33-1.55-.639-2.886-.639-2.537 0-4.223 1.51-4.223 3.545 0 1.84 1.318 2.944 3.448 3.7 1.763.677 2.46 1.375 2.46 2.595 0 1.317-1.007 2.227-2.73 2.227a5.972 5.972 0 0 1-3.023-.852l-.426 1.414c.698.465 2.073.833 3.332.833zm8.96 0c.659 0 1.182-.097 1.511-.232l-.077-1.279a3.792 3.792 0 0 1-.988.116c-.95 0-1.279-.658-1.279-1.82v-5.056h2.441V22.56h-2.44v-2.692l-1.666.445v2.247h-1.453v1.298h1.453v5.114c0 1.104.174 1.937.658 2.44.407.465 1.046.717 1.84.717zm6.54.02c2.266 0 4.668-1.511 4.668-4.979 0-2.866-1.821-4.823-4.514-4.823-2.595 0-4.648 1.84-4.648 4.978 0 2.964 1.956 4.823 4.493 4.823zm.077-1.279c-1.666 0-2.847-1.55-2.847-3.603 0-1.782.871-3.641 2.886-3.641 2.014 0 2.808 2.014 2.808 3.602 0 2.112-1.22 3.642-2.847 3.642zm7.74 1.065v-4.997c0-.29.039-.562.078-.794.232-1.279 1.084-2.189 2.285-2.189.233 0 .407.02.581.058v-1.608a1.844 1.844 0 0 0-.484-.058c-1.143 0-2.17.794-2.596 2.053h-.077l-.058-1.84h-1.492c.058.872.078 1.821.078 2.925v6.45H92.3zm7.701.194c1.492 0 2.518-.31 3.119-.581l-.29-1.22c-.64.27-1.376.484-2.596.484-1.705 0-3.177-.95-3.216-3.254h6.586c.02-.175.058-.446.058-.794 0-1.724-.813-4.417-3.874-4.417-2.73 0-4.397 2.228-4.397 5.056s1.724 4.726 4.61 4.726zm2.015-5.792h-4.978c.135-1.181.89-2.77 2.615-2.77 1.917 0 2.382 1.686 2.363 2.77z" fill-rule="nonzero"/></g></g></svg>