<svg width="119" height="39" xmlns="http://www.w3.org/2000/svg"><g fill="none" fill-rule="evenodd"><rect fill="#343434" width="118.541" height="38.949" rx="3.84"/><g fill="#FFF"><path d="M30.482 8.884c0-1.8 1.341-2.957 3.01-2.957 1.118 0 1.848.531 2.305 1.183l-.818.472a1.852 1.852 0 0 0-1.487-.763c-1.135 0-1.978.857-1.978 2.065 0 1.192.843 2.065 1.978 2.065.585 0 1.1-.265 1.359-.514v-.883h-1.72V8.67h2.717v2.134a3.102 3.102 0 0 1-2.356 1.046c-1.669 0-3.01-1.174-3.01-2.966zM37.256 11.645V5.927h3.929v.883H38.26v1.474h2.864v.883h-2.864v1.595h2.924v.883h-3.93zM44.073 11.644V6.81h-1.737v-.883h4.48v.883H45.08v4.834zM49.956 11.645V5.927h1.006v5.718zM53.387 11.644V6.81H51.65v-.883h4.48v.883h-1.737v4.834zM60.117 8.884c0-1.706 1.213-2.957 2.933-2.957 1.71 0 2.932 1.251 2.932 2.957s-1.222 2.957-2.932 2.957c-1.72 0-2.933-1.251-2.933-2.957zm4.833 0c0-1.183-.748-2.065-1.9-2.065-1.161 0-1.9.882-1.9 2.065 0 1.174.739 2.065 1.9 2.065 1.152 0 1.9-.891 1.9-2.065zM70.889 11.645l-2.992-4.089v4.089H66.89V5.927h1.032l2.932 3.96v-3.96h1.006v5.718z"/><g><path d="M81.997 29.22l-.867.816c-.2.11-.4.237-.598.328-.602.272-1.215.34-1.759.34-.579 0-1.487-.036-2.413-.704-1.286-.904-1.849-2.456-1.849-3.81 0-2.801 2.288-4.175 4.154-4.175.653 0 1.323.163 1.867.506.906.596 1.14 1.372 1.27 1.788l-4.262 1.717-1.396.108c.452 2.296 2.011 3.633 3.734 3.633.86 0 1.5-.28 2.086-.57 0 .001.117-.06.033.024zm-2.571-4.569c.346-.125.526-.234.526-.485 0-.722-.82-1.555-1.797-1.555-.725 0-2.084.563-2.084 2.514 0 .305.036.63.055.954l3.3-1.428z"/><path d="M73.422 28.337c0 .703.125.812.721.867.31.036.62.053.927.089l-.67.397h-3.196c.42-.542.491-.595.491-.957v-.403l-.007-10.743h-1.41l1.357-.653h2.593c-.562.324-.73.523-.802 1.154l-.004 10.25z"/><path d="M68.571 22.669c.416.34 1.285 1.064 1.285 2.438 0 1.338-.757 1.969-1.52 2.566-.234.235-.508.49-.508.884 0 .4.274.616.472.778l.654.504c.797.67 1.522 1.284 1.522 2.532 0 1.7-1.65 3.413-4.768 3.413-2.627 0-3.897-1.246-3.897-2.583 0-.652.324-1.573 1.397-2.204 1.124-.685 2.647-.776 3.462-.83-.255-.328-.546-.67-.546-1.231 0-.306.093-.489.182-.704-.198.019-.398.038-.58.038-1.922 0-3.01-1.43-3.01-2.84 0-.83.38-1.752 1.162-2.42 1.033-.85 2.266-.995 3.245-.995h3.736l-1.162.654h-1.126zm-1.285 8.022c-.148-.02-.237-.02-.416-.02-.165 0-1.144.036-1.903.29-.401.146-1.56.578-1.56 1.862 0 1.281 1.251 2.204 3.19 2.204 1.74 0 2.664-.831 2.664-1.951 0-.922-.599-1.408-1.975-2.385zm.522-3.434c.42-.416.456-.993.456-1.32 0-1.3-.778-3.324-2.285-3.324-.47 0-.979.235-1.268.599-.306.376-.398.864-.398 1.334 0 1.21.707 3.217 2.265 3.217.454 0 .943-.22 1.23-.506zM56.92 30.668c-2.882 0-4.423-2.238-4.423-4.262 0-2.367 1.938-4.391 4.695-4.391 2.665 0 4.334 2.08 4.334 4.263 0 2.133-1.65 4.39-4.606 4.39zm2.267-1.462c.438-.578.545-1.3.545-2.004 0-1.591-.76-4.627-3.01-4.627-.597 0-1.2.233-1.633.614-.708.632-.835 1.427-.835 2.206 0 1.786.885 4.73 3.082 4.73.71 0 1.434-.342 1.851-.92zM47.605 30.668c-2.883 0-4.422-2.238-4.422-4.262 0-2.367 1.939-4.391 4.694-4.391 2.664 0 4.331 2.08 4.331 4.263.001 2.133-1.647 4.39-4.603 4.39zm2.267-1.462c.435-.578.544-1.3.544-2.004 0-1.591-.763-4.627-3.01-4.627-.6 0-1.195.233-1.63.614-.71.632-.835 1.427-.835 2.206 0 1.786.889 4.73 3.082 4.73.708 0 1.43-.342 1.85-.92zM42.192 29.402l-2.43.555c-.985.154-1.87.29-2.806.29-4.688 0-6.474-3.44-6.474-6.13 0-3.288 2.53-6.336 6.864-6.336.917 0 1.8.135 2.604.352 1.274.358 1.869.797 2.242 1.055l-1.412 1.336-.595.133.424-.674c-.575-.56-1.632-1.593-3.637-1.593-2.681 0-4.704 2.032-4.704 4.998 0 3.185 2.31 6.182 6.013 6.182 1.089 0 1.649-.218 2.158-.421v-2.731l-2.566.137 1.36-.728h3.601l-.44.422c-.12.101-.135.135-.168.27-.018.155-.034.645-.034.817v2.066zM87.282 29.336v4.603h-.917V22.227h.917v1.333a3.648 3.648 0 0 1 2.957-1.545c2.274 0 3.806 1.72 3.806 4.441 0 2.704-1.532 4.46-3.806 4.46-1.197 0-2.269-.616-2.957-1.58zm5.778-2.88c0-2.05-1.073-3.616-2.975-3.616-1.182 0-2.312.926-2.803 1.733v3.749c.491.808 1.621 1.767 2.803 1.767 1.902 0 2.975-1.578 2.975-3.632zM95.68 30.34V18.628h.916V30.34h-.917zM104.41 30.682a15.577 15.577 0 0 1-.142-.77 5.05 5.05 0 0 1-.044-.66c-.315.46-.76.842-1.33 1.144-.569.303-1.109.453-1.851.453-.894 0-1.587-.22-2.082-.664-.493-.444-.741-1.045-.741-1.806 0-.76.359-1.377 1.076-1.848.716-.474 1.643-.71 2.789-.71h2.138v-1.053c0-.607-.207-1.084-.621-1.43-.416-.346-1-.522-1.756-.522-.692 0-1.253.16-1.68.472-.423.318-.636.712-.636 1.187h-.938l-.02-.045c-.034-.64.26-1.202.885-1.687.622-.485 1.437-.728 2.44-.728 1 0 1.809.24 2.419.718.609.474.915 1.16.915 2.055v4.182a5.51 5.51 0 0 0 .235 1.713h-1.057v-.001zm-3.255-.666c.78 0 1.34-.174 1.912-.517.568-.342.954-.787 1.158-1.326v-1.627h-2.15c-.82 0-1.5.18-2.034.546-.536.364-.808.805-.808 1.318 0 .483.172.87.514 1.163.343.296.811.443 1.408.443zM107.895 32.97c.196.086.53.14.743.14.56 0 .951-.229 1.302-1.037l.669-1.51-3.613-8.548h1.023l3.099 7.408 3.068-7.408h1.038l-4.406 10.342c-.457 1.065-1.177 1.578-2.164 1.578-.297 0-.688-.053-.917-.123l.158-.843zM8.166 34.686c-.33-.09-.546-.417-.546-.925V16.99c0-.47.183-.788.472-.903l8.24 9.345-8.166 9.253zm1.135-.356l9.92-5.622-2.417-2.74-7.503 8.362zm9.988-12.246l-9.782-5.545 7.312 8.343 2.47-2.798zm.663.376l3.832 2.172c.726.411.732 1.074 0 1.49l-3.929 2.226-2.562-2.924 2.66-2.964z"/></g></g></g></svg>