<svg width="16" height="13" viewBox="0 0 16 13" fill="none" xmlns="http://www.w3.org/2000/svg">
<path d="M14.7036 5.96919H12.1962C11.9942 5.96919 11.8094 6.08313 11.7177 6.26401L9.59696 10.4413L6.2546 1.03607C6.18243 0.833027 5.99722 0.692642 5.7832 0.678777C5.56883 0.663836 5.3675 0.780106 5.27009 0.972157L2.73315 5.96937H0.554768C0.257999 5.96937 0.0174561 6.2113 0.0174561 6.50934C0.0174561 6.80741 0.257999 7.04934 0.554768 7.04934H3.06233C3.26419 7.04934 3.44901 6.9354 3.54089 6.75467L5.66145 2.57736L9.0038 11.9826C9.07597 12.1857 9.26135 12.3261 9.4752 12.3399C9.48682 12.3406 9.49848 12.341 9.50996 12.341C9.71072 12.341 9.8961 12.228 9.98834 12.0466L12.5253 7.04919H14.7037C15.0004 7.04919 15.241 6.80744 15.241 6.50919C15.241 6.21094 15.0004 5.96919 14.7036 5.96919Z" fill="#A6A6A6"/>
</svg>